<svg width="24" height="24" viewBox="0 0 24 24" fill="none" xmlns="http://www.w3.org/2000/svg">
<path d="M20.9646 10.9029C20.7478 10.89 20.5412 10.9959 20.4251 11.1794C20.2103 11.0446 19.6274 10.7611 19.4011 10.6446L19.3189 10.6034C19.3057 10.5978 19.2909 10.5978 19.2777 10.6034V10.5897C19.2789 10.573 19.2789 10.5562 19.2777 10.5394C19.5063 5.83543 14.7451 2.18057 10.1349 3.59543C7.89628 4.30748 6.14302 6.06245 5.43314 8.30171C5.2452 8.98643 5.14535 9.69231 5.136 10.4023L4.96228 10.4709L4.83657 10.5234C4.608 10.624 4.37942 10.7314 4.15085 10.848C3.92228 10.9646 3.69371 11.0766 3.48571 11.2206C3.45554 11.2392 3.44382 11.2773 3.45828 11.3097C3.47566 11.344 3.5166 11.359 3.552 11.344C3.78057 11.2389 4.00914 11.1451 4.23771 11.0583C4.46628 10.9714 4.70628 10.8937 4.94399 10.8297H4.95771C5.072 10.7954 5.18628 10.7657 5.30285 10.736L5.48114 10.6949H5.50171L5.66171 10.6606C5.90171 10.608 6.144 10.576 6.38628 10.5463H6.41371C6.50722 10.5326 6.58495 10.4672 6.61441 10.3775C6.64388 10.2877 6.62002 10.1889 6.5528 10.1225C6.48557 10.0561 6.38656 10.0334 6.29714 10.064C6.06857 10.1189 5.83999 10.1783 5.63199 10.2491L5.67542 10.2354C5.6886 9.6026 5.77996 8.97384 5.94742 8.36343C6.60513 6.29721 8.22406 4.67828 10.2903 4.02057C10.4762 3.96419 10.6613 3.91619 10.8457 3.87657C11.0263 3.83771 11.7486 3.73486 10.96 4.176C9.6494 4.92954 8.67026 6.14857 8.21714 7.59086C7.98857 8.32914 7.89942 9.78514 8.05942 10.9029C8.10971 11.2526 7.99085 11.3211 7.77371 11.4126C7.31657 11.6069 6.51657 11.9589 6.10514 12.4571C5.94514 12.6491 5.87657 12.4571 5.83771 12.32C5.75769 11.9437 5.70876 11.5615 5.69142 11.1771C5.68972 11.1436 5.67307 11.1126 5.64606 11.0927C5.61905 11.0728 5.58453 11.066 5.552 11.0743C5.44 11.1017 5.32342 11.1291 5.21828 11.1657C5.17177 11.1818 5.14117 11.2263 5.14285 11.2754C5.20685 12.7451 5.57942 14.112 6.47085 14.0686C6.50524 14.0661 6.53683 14.0487 6.55745 14.0211C6.57806 13.9935 6.58567 13.9582 6.57828 13.9246C6.43892 13.8493 6.32989 13.7282 6.26971 13.5817C5.97485 12.6994 8.70857 11.5451 12.2126 11.0217C15.4309 10.5394 18.1943 10.7589 18.6743 11.4926C18.7735 11.6182 18.7844 11.7921 18.7017 11.9291C18.4995 12.2923 18.1972 12.5898 17.8309 12.7863C17.7999 12.8051 17.7779 12.8358 17.7702 12.8712C17.7624 12.9066 17.7694 12.9437 17.7897 12.9737C17.8259 13.0303 17.8991 13.05 17.9589 13.0194C18.4072 12.8001 18.7809 12.4535 19.0331 12.0229C19.1752 11.6996 19.2529 11.3518 19.2617 10.9989C19.4903 11.0697 20.0937 11.312 20.3246 11.4057H20.3429C20.3332 11.4439 20.3271 11.483 20.3246 11.5223C20.3108 11.8735 20.5736 12.1743 20.9234 12.208C21.0837 12.2154 21.2402 12.1585 21.3583 12.0499C21.4763 11.9413 21.5461 11.79 21.552 11.6297C21.5748 11.2774 21.3156 10.9698 20.9646 10.9326V10.9029ZM16.4571 9.41714C16.4605 9.50501 16.4267 9.59022 16.3641 9.65196C16.3015 9.7137 16.2158 9.74627 16.128 9.74171C15.3589 9.68233 14.5859 9.6961 13.8194 9.78286C13.7305 9.79007 13.6427 9.759 13.5781 9.69746C13.5135 9.63592 13.4782 9.54975 13.4811 9.46057V9.19086C13.4816 9.12278 13.529 9.06403 13.5954 9.04914C14.5027 8.8978 15.4278 8.887 16.3383 9.01714C16.4059 9.02853 16.4547 9.08807 16.4526 9.15657L16.4571 9.41714ZM18.0709 8.65143C18.04 8.69914 17.9796 8.7183 17.9269 8.69714C15.9337 7.94057 12.8229 8.368 12.8229 8.368C11.7559 8.47413 10.7068 8.7153 9.70057 9.08572C9.59077 9.12775 9.46724 9.11219 9.3713 9.04425C9.27536 8.97631 9.21966 8.86495 9.22285 8.74743C9.2309 8.47382 9.2584 8.20114 9.30514 7.93143C9.40611 7.19354 9.70375 6.49642 10.1669 5.91314C10.1943 5.88114 10.2217 5.84914 10.2514 5.81943C10.2562 5.81085 10.2624 5.80313 10.2697 5.79657L10.2834 5.78057L10.3177 5.744L10.3337 5.728C11.6891 4.31086 14.0731 4.14857 15.7463 5.072C16.5829 5.54299 17.2764 6.23174 17.7531 7.06514C17.8263 7.20229 18.288 8.26971 18.0709 8.65143Z" fill="black"/>
<path d="M17.0103 6.87771C16.6322 6.23293 16.0557 5.72777 15.3669 5.43771C14.5987 5.11446 13.7621 4.98722 12.9326 5.06743C12.638 5.09057 12.348 5.15442 12.0709 5.25714C12.0155 5.27307 11.9801 5.32706 11.9875 5.3842C11.9949 5.44133 12.043 5.48447 12.1006 5.48571C12.7256 5.41974 13.3566 5.43665 13.9771 5.536C16.2629 5.99314 16.9943 7.09257 17.0743 7.136C17.0971 7.14743 17.1246 7.12457 17.1131 7.10171C17.0836 7.02382 17.0501 6.94753 17.0126 6.87314" fill="black"/>
<path d="M6.78857 10.8663C6.82781 10.9215 6.8895 10.9565 6.95702 10.9618C7.02454 10.967 7.09093 10.9421 7.13829 10.8937C7.21434 10.8172 7.27011 10.7229 7.30057 10.6194C7.37064 10.3537 7.35382 10.0726 7.25257 9.81714C7.18742 9.65413 7.06899 9.51797 6.91657 9.43086C6.88873 9.41323 6.85498 9.40746 6.82286 9.41486C6.7291 9.44625 6.6486 9.50823 6.59429 9.59086C6.58066 9.60793 6.5751 9.63007 6.57905 9.65155C6.58299 9.67303 6.59606 9.69175 6.61486 9.70286C6.80057 9.80089 6.93113 9.97861 6.96915 10.1851C6.99551 10.3964 6.92973 10.6087 6.78857 10.768C6.7643 10.7963 6.7643 10.838 6.78857 10.8663Z" fill="black"/>
<path d="M2.51429 11.2C2.317 11.1836 2.12136 11.2469 1.97105 11.3757C1.82074 11.5046 1.72827 11.6882 1.71429 11.8857C1.70756 12.3113 2.03891 12.6659 2.464 12.688C2.86674 12.7171 3.21852 12.4181 3.25486 12.016C3.27177 11.5876 2.94233 11.2246 2.51429 11.2Z" fill="black"/>
<path d="M23.9291 12C23.9295 6.41327 20.0576 1.57249 14.6072 0.345614C9.15686 -0.881258 3.58413 1.83353 1.19064 6.88157C-1.20286 11.9296 0.222281 17.9624 4.62171 21.4057L4.85028 21.5863C4.928 21.6457 5.008 21.7029 5.07886 21.76C6.30666 22.6288 7.68798 23.257 9.14971 23.6114H9.184L9.38743 23.6594L9.44914 23.6709L9.64114 23.712L9.71657 23.7257L9.904 23.76L9.97714 23.7737C10.1006 23.7935 10.224 23.8118 10.3474 23.8286L10.4206 23.84L10.56 23.856L10.7017 23.872L10.8343 23.8857L10.9874 23.8994H11.1131H11.2777H11.3943H11.584H11.68H11.9657C12.0686 23.8994 12.1691 23.8994 12.2697 23.8994H12.3703H12.5737H12.6949H12.8731L13.0034 23.888L13.1703 23.8743L13.3074 23.8583L13.4674 23.84L13.6069 23.8217L13.76 23.7989L13.9017 23.776L14.0503 23.7531L14.1943 23.7257L14.3406 23.6983L14.4846 23.6663L14.6263 23.6366L14.7703 23.6023L14.9097 23.568L15.0857 23.5429L15.2183 23.5063L15.3669 23.4651L15.4971 23.4263L15.6434 23.3783C15.6868 23.367 15.7296 23.3532 15.7714 23.3371L15.92 23.2869L16.0434 23.2434L16.192 23.1886L16.3109 23.1429L16.4571 23.0857L16.5714 23.04L16.7223 22.976L16.8343 22.928L16.9851 22.8594L17.0926 22.8091L17.2434 22.736L17.3463 22.6834L17.4971 22.608L17.5977 22.5531C17.6503 22.528 17.7006 22.5006 17.7486 22.4731L17.8469 22.4183L17.9977 22.3314L18.0891 22.2766L18.2423 22.1851L18.3291 22.1303L18.4823 22.0343L18.5646 21.9794L18.7177 21.8766L18.7954 21.824L18.9509 21.7143L19.0217 21.6617L19.1794 21.5451L19.2434 21.4971L19.4034 21.3737L19.4606 21.3257L19.6229 21.1954L19.6709 21.152L19.8377 21.0126L19.8766 20.9783L20.048 20.8229L20.0731 20.8023L20.2537 20.6309C22.6097 18.3804 23.9406 15.2627 23.936 12.0046L23.9291 12ZM15.6229 16C15.6069 15.8674 15.5909 15.7326 15.5703 15.6C15.5497 15.4674 15.5314 15.3349 15.5063 15.2046C15.4811 15.0743 15.4606 14.9417 15.4354 14.8114C15.4103 14.6811 15.3783 14.5486 15.3463 14.4297C15.327 14.3399 15.3791 14.2501 15.4666 14.2223C15.5542 14.1945 15.6485 14.2378 15.6846 14.3223C15.7349 14.464 15.7691 14.592 15.8057 14.7291C15.8423 14.8663 15.8743 14.9966 15.904 15.1314C15.9611 15.4034 16.0069 15.6731 16.0503 15.9451C16.1051 16.3017 16.1417 16.6606 16.1714 17.0171C16.4 17.0286 16.6446 17.0446 16.88 17.0674C17.5184 17.1329 18.1482 17.2655 18.7589 17.4629C18.8366 17.4914 18.8803 17.5739 18.8604 17.6543C18.8404 17.7346 18.7632 17.7871 18.6811 17.776H18.6697C18.3634 17.7234 18.0663 17.6503 17.7554 17.616L17.5269 17.5817L17.4126 17.5657H17.2983L16.8411 17.5223C16.7634 17.5109 16.6857 17.5223 16.6126 17.5063L16.384 17.4926H16.2149C16.2149 17.5314 16.2149 17.5703 16.2149 17.6091L16.2331 18.0183V18.4297C16.2331 18.704 16.2331 18.9783 16.2331 19.2526C16.2331 19.5269 16.2126 19.7989 16.2034 20.0709C16.1943 20.3429 16.1646 20.6171 16.1394 20.8891C16.1259 20.9794 16.0463 21.0449 15.9551 21.0408C15.8639 21.0366 15.7905 20.9643 15.7851 20.8731C15.7851 20.6034 15.7851 20.3337 15.7989 20.064C15.8126 19.7943 15.7989 19.5223 15.7989 19.2526C15.7989 18.9829 15.7989 18.7131 15.7851 18.4457L15.7714 18.0411V17.6C15.7714 17.5474 15.7714 17.4971 15.7714 17.4469H15.4651H15.008C14.8526 17.4469 14.6971 17.4606 14.5509 17.4651C14.4046 17.4697 14.24 17.4811 14.0937 17.4949C13.7829 17.5154 13.472 17.5451 13.1634 17.5794C12.544 17.6503 11.9223 17.7394 11.3166 17.8583C11.2284 17.8751 11.1429 17.8182 11.1246 17.7303C11.1096 17.6471 11.1599 17.5661 11.2411 17.5429C11.5543 17.4583 11.8606 17.392 12.1737 17.3303C12.4869 17.2686 12.7977 17.2183 13.1131 17.1703C13.2686 17.1451 13.4286 17.1291 13.5863 17.1086C13.744 17.088 13.9017 17.072 14.0594 17.0583C14.2171 17.0446 14.3749 17.0286 14.5349 17.0217C14.6949 17.0149 14.8526 16.9989 15.0126 16.9966C15.264 16.9851 15.5154 16.9829 15.7691 16.9966C15.7417 16.6606 15.7097 16.3269 15.6686 15.9954L15.6229 16ZM9.56571 14.3749C9.45143 14.7543 9.184 15.6686 9.01714 16.384C8.58886 18.4694 8.27676 20.5771 8.08228 22.6971C7.05172 22.3176 6.08222 21.7893 5.20457 21.1291C5.38786 19.753 5.68215 18.3939 6.08457 17.0651C6.23097 16.5829 6.43189 16.119 6.68343 15.6823C6.88489 15.3887 7.16324 15.1562 7.488 15.0103L7.54743 14.9829L7.64571 14.928L7.77143 14.864C7.85828 14.8229 7.94286 14.7817 8.02743 14.7451L8.15771 14.688L8.28571 14.6354L8.54628 14.5349C8.77486 14.4503 9.16343 14.3314 9.40571 14.2606C9.53143 14.224 9.59771 14.2606 9.56571 14.3749ZM19.7463 17.5749C19.3897 16.2469 18.9074 14.1669 17.4834 13.6891C15.9657 13.1726 14.3337 13.1154 12.7566 13.216C11.6338 13.2881 10.5228 13.4867 9.44457 13.808C8.96686 13.9474 7.43543 14.5349 7.13143 14.6903C6.7838 14.847 6.48577 15.0961 6.26971 15.4103C6.00003 15.878 5.78455 16.3749 5.62743 16.8914C5.24331 18.1644 4.94925 19.4629 4.74743 20.7771C4.48 20.5486 4.21943 20.32 3.97028 20.0663C-0.46644 15.6311 -0.486468 8.44478 3.92547 3.98492C8.3374 -0.474941 15.5235 -0.532559 20.0064 3.85598C24.4893 8.24453 24.5845 15.4302 20.2194 19.936C20.1131 19.1403 19.955 18.3523 19.7463 17.5771" fill="black"/>
</svg>
