<svg width="24" height="24" viewBox="0 0 24 24" fill="none" xmlns="http://www.w3.org/2000/svg">
<path d="M17.5 4.5C15.55 4.5 13.45 4.9 12 6C10.55 4.9 8.45 4.5 6.5 4.5C5.05 4.5 3.51 4.72 2.22 5.29C1.49 5.62 1 6.33 1 7.14V18.42C1 19.72 2.22 20.68 3.48 20.36C4.46 20.11 5.5 20 6.5 20C8.06 20 9.72 20.26 11.06 20.92C11.66 21.22 12.34 21.22 12.93 20.92C14.27 20.25 15.93 20 17.49 20C18.49 20 19.53 20.11 20.51 20.36C21.77 20.69 22.99 19.73 22.99 18.42V7.14C22.99 6.33 22.5 5.62 21.77 5.29C20.49 4.72 18.95 4.5 17.5 4.5V4.5ZM21 17.23C21 17.86 20.42 18.32 19.8 18.21C19.05 18.07 18.27 18.01 17.5 18.01C15.8 18.01 13.35 18.66 12 19.51V8C13.35 7.15 15.8 6.5 17.5 6.5C18.42 6.5 19.33 6.59 20.2 6.78C20.66 6.88 21 7.29 21 7.76V17.23Z" fill="#88AED0"/>
</svg>
