<svg width="109" height="32" viewBox="0 0 109 32" fill="none" xmlns="http://www.w3.org/2000/svg">
<path d="M8.8049 18.4431C8.8049 22.409 12.0197 25.6239 15.9869 25.6239C19.9528 25.6239 23.1676 22.409 23.1676 18.4431" stroke="#6C6C6C" stroke-width="2" stroke-linecap="round" stroke-linejoin="round"/>
<path d="M23.1675 14.3196V11.4645C23.1675 7.49861 19.9527 4.28381 15.9868 4.28381C12.0196 4.28381 8.80478 7.49861 8.80478 11.4645V14.3196" stroke="#6C6C6C" stroke-width="2" stroke-linecap="round" stroke-linejoin="round"/>
<path d="M15.9869 28.3501V25.6242" stroke="#6C6C6C" stroke-width="2" stroke-linecap="round" stroke-linejoin="round"/>
<path d="M6.94949 18.4431H25.0236" stroke="#6C6C6C" stroke-width="2" stroke-linecap="round" stroke-linejoin="round"/>
<path d="M13.9966 13.9356H17.9765" stroke="#6C6C6C" stroke-width="2" stroke-linecap="round" stroke-linejoin="round"/>
<path d="M16.6548 10.2426H15.3172" stroke="#6C6C6C" stroke-width="2" stroke-linecap="round" stroke-linejoin="round"/>
<path d="M53.1676 15.9545C53.1676 17.3821 52.897 18.5966 52.3558 19.598C51.8189 20.5994 51.0859 21.3643 50.157 21.8928C49.2322 22.4169 48.1925 22.679 47.0376 22.679C45.8743 22.679 44.8303 22.4148 43.9055 21.8864C42.9808 21.358 42.25 20.593 41.7131 19.5916C41.1761 18.5902 40.9077 17.3778 40.9077 15.9545C40.9077 14.527 41.1761 13.3125 41.7131 12.3111C42.25 11.3097 42.9808 10.5469 43.9055 10.0227C44.8303 9.49432 45.8743 9.23011 47.0376 9.23011C48.1925 9.23011 49.2322 9.49432 50.157 10.0227C51.0859 10.5469 51.8189 11.3097 52.3558 12.3111C52.897 13.3125 53.1676 14.527 53.1676 15.9545ZM50.3615 15.9545C50.3615 15.0298 50.223 14.25 49.946 13.6151C49.6733 12.9801 49.2876 12.4986 48.7891 12.1705C48.2905 11.8423 47.7067 11.6783 47.0376 11.6783C46.3686 11.6783 45.7848 11.8423 45.2862 12.1705C44.7876 12.4986 44.3999 12.9801 44.1229 13.6151C43.8501 14.25 43.7138 15.0298 43.7138 15.9545C43.7138 16.8793 43.8501 17.6591 44.1229 18.294C44.3999 18.929 44.7876 19.4105 45.2862 19.7386C45.7848 20.0668 46.3686 20.2308 47.0376 20.2308C47.7067 20.2308 48.2905 20.0668 48.7891 19.7386C49.2876 19.4105 49.6733 18.929 49.946 18.294C50.223 17.6591 50.3615 16.8793 50.3615 15.9545ZM57.8897 16.8239V22.5H55.1667V12.6818H57.7619V14.4141H57.877C58.0943 13.843 58.4586 13.3913 58.97 13.0589C59.4814 12.7223 60.1014 12.554 60.8301 12.554C61.5119 12.554 62.1064 12.7031 62.6135 13.0014C63.1206 13.2997 63.5147 13.7259 63.796 14.2798C64.0772 14.8295 64.2179 15.4858 64.2179 16.2486V22.5H61.4949V16.7344C61.4991 16.1335 61.3457 15.6648 61.0346 15.3281C60.7235 14.9872 60.2953 14.8168 59.7498 14.8168C59.3833 14.8168 59.0595 14.8956 58.7782 15.0533C58.5012 15.2109 58.2839 15.4411 58.1262 15.7436C57.9728 16.0419 57.894 16.402 57.8897 16.8239ZM69.9819 22.6598C69.2362 22.6598 68.5607 22.468 67.9556 22.0845C67.3548 21.6967 66.8775 21.1278 66.5238 20.3778C66.1744 19.6236 65.9996 18.6989 65.9996 17.6037C65.9996 16.4787 66.1808 15.5433 66.543 14.7976C66.9052 14.0476 67.3867 13.4872 67.9876 13.1165C68.5927 12.7415 69.2553 12.554 69.9755 12.554C70.5252 12.554 70.9833 12.6477 71.3498 12.8352C71.7205 13.0185 72.0188 13.2486 72.2447 13.5256C72.4748 13.7983 72.6495 14.0668 72.7688 14.331H72.8519V9.40909H75.5685V22.5H72.8839V20.9276H72.7688C72.641 21.2003 72.4599 21.4709 72.2255 21.7393C71.9954 22.0036 71.695 22.223 71.3242 22.3977C70.9577 22.5724 70.5103 22.6598 69.9819 22.6598ZM70.8448 20.4929C71.2837 20.4929 71.6545 20.3736 71.957 20.1349C72.2638 19.892 72.4982 19.5533 72.6602 19.1186C72.8263 18.6839 72.9094 18.1747 72.9094 17.5909C72.9094 17.0071 72.8285 16.5 72.6665 16.0696C72.5046 15.6392 72.2702 15.3068 71.9634 15.0724C71.6566 14.8381 71.2837 14.7209 70.8448 14.7209C70.3974 14.7209 70.0202 14.8423 69.7134 15.0852C69.4066 15.3281 69.1744 15.6648 69.0167 16.0952C68.859 16.5256 68.7802 17.0241 68.7802 17.5909C68.7802 18.1619 68.859 18.6669 69.0167 19.1058C69.1786 19.5405 69.4109 19.8814 69.7134 20.1286C70.0202 20.3714 70.3974 20.4929 70.8448 20.4929ZM82.2818 22.6918C81.2718 22.6918 80.4025 22.4872 79.6738 22.0781C78.9494 21.6648 78.3912 21.081 77.9991 20.3267C77.6071 19.5682 77.411 18.6712 77.411 17.6357C77.411 16.6257 77.6071 15.7393 77.9991 14.9766C78.3912 14.2138 78.943 13.6193 79.6547 13.1932C80.3706 12.767 81.21 12.554 82.1731 12.554C82.8208 12.554 83.4238 12.6584 83.9821 12.8672C84.5446 13.0717 85.0346 13.3807 85.4522 13.794C85.8741 14.2074 86.2022 14.7273 86.4366 15.3537C86.671 15.9759 86.7882 16.7045 86.7882 17.5398V18.2876H78.4977V16.6001H84.225C84.225 16.2081 84.1397 15.8608 83.9693 15.5582C83.7988 15.2557 83.5623 15.0192 83.2598 14.8487C82.9615 14.674 82.6142 14.5866 82.2179 14.5866C81.8045 14.5866 81.438 14.6825 81.1184 14.8743C80.8031 15.0618 80.5559 15.3153 80.377 15.6349C80.198 15.9503 80.1064 16.3018 80.1021 16.6896V18.294C80.1021 18.7798 80.1916 19.1996 80.3706 19.5533C80.5538 19.907 80.8116 20.1797 81.144 20.3714C81.4764 20.5632 81.8706 20.6591 82.3265 20.6591C82.6291 20.6591 82.9061 20.6165 83.1575 20.5312C83.4089 20.446 83.6241 20.3182 83.8031 20.1477C83.9821 19.9773 84.1184 19.7685 84.2122 19.5213L86.7306 19.6875C86.6028 20.2926 86.3407 20.821 85.9444 21.2727C85.5524 21.7202 85.0453 22.0696 84.4231 22.321C83.8052 22.5682 83.0914 22.6918 82.2818 22.6918ZM93.0012 22.6918C91.9956 22.6918 91.1305 22.4787 90.4061 22.0526C89.6859 21.6222 89.1319 21.0256 88.7441 20.2628C88.3606 19.5 88.1689 18.6222 88.1689 17.6293C88.1689 16.6236 88.3627 15.7415 88.7505 14.983C89.1426 14.2202 89.6987 13.6257 90.4189 13.1996C91.139 12.7692 91.9956 12.554 92.9885 12.554C93.845 12.554 94.595 12.7095 95.2385 13.0206C95.8819 13.3317 96.3912 13.7685 96.7662 14.331C97.1412 14.8935 97.3478 15.554 97.3862 16.3125H94.8166C94.7441 15.8224 94.5524 15.4283 94.2413 15.13C93.9345 14.8274 93.5318 14.6761 93.0332 14.6761C92.6113 14.6761 92.2427 14.7912 91.9274 15.0213C91.6163 15.2472 91.3734 15.5774 91.1987 16.0121C91.024 16.4467 90.9366 16.973 90.9366 17.5909C90.9366 18.2173 91.0218 18.75 91.1923 19.1889C91.367 19.6278 91.612 19.9624 91.9274 20.1925C92.2427 20.4226 92.6113 20.5376 93.0332 20.5376C93.3443 20.5376 93.6234 20.4737 93.8706 20.3459C94.122 20.218 94.3287 20.0327 94.4906 19.7898C94.6568 19.5426 94.7654 19.2464 94.8166 18.9013H97.3862C97.3436 19.6513 97.139 20.3118 96.7726 20.8828C96.4103 21.4496 95.9096 21.8928 95.2704 22.2124C94.6312 22.532 93.8748 22.6918 93.0012 22.6918ZM101.597 19.6747L101.603 16.4084H102L105.145 12.6818H108.27L104.045 17.6165H103.4L101.597 19.6747ZM99.1296 22.5V9.40909H101.853V22.5H99.1296ZM105.266 22.5L102.377 18.2237L104.192 16.2997L108.456 22.5H105.266Z" fill="#6C6C6C"/>
</svg>
