<svg width="193" height="52" viewBox="0 0 193 52" fill="none" xmlns="http://www.w3.org/2000/svg">
<g clip-path="url(#clip0_16_5)">
<path d="M26.5151 48.6482C23.6144 49.1565 20.6625 49.3089 17.609 49.7148L8.29541 22.4962V50.8829C5.39463 51.1875 2.74825 51.5938 0 52V0H7.73593L18.3214 29.5043V0H26.5151V48.6482ZM42.5465 19.043C45.7021 19.043 50.5368 18.8906 53.4376 18.8906V27.0154C49.8241 27.0154 45.6002 27.0154 42.5465 27.1678V39.2539C47.3306 38.9494 52.1145 38.5427 56.9491 38.3904V46.2102L34.4034 47.9879V0H56.9491V8.12501H42.5465V19.043ZM87.2303 8.1252H78.7822V45.5001C76.034 45.5001 73.2857 45.5001 70.6397 45.6014V8.1252H62.1916V0H87.2307L87.2303 8.1252ZM100.462 18.4845H111.608V26.6094H100.462V45.0432H92.4717V0H115.221V8.12501H100.462V18.4845ZM128.454 37.9336C133.085 38.0348 137.767 38.3909 142.296 38.6444V46.6679C135.019 46.2106 127.741 45.7542 120.311 45.6014V0H128.454V37.9336ZM149.167 47.2266C151.762 47.3791 154.511 47.5315 157.157 47.8357V0H149.167V47.2266ZM192.833 0L182.502 24.7305L192.833 52C189.779 51.5938 186.726 51.0351 183.672 50.5272L177.82 35.4963L171.866 49.3089C168.914 48.8006 166.064 48.6482 163.112 48.242L173.596 24.4256L164.13 0H172.883L178.227 13.6602L183.927 0H192.833V0Z" fill="#6C6C6C"/>
</g>
<defs>
<clipPath id="clip0_16_5">
<rect width="192.833" height="52" fill="white"/>
</clipPath>
</defs>
</svg>
