<svg width="185" height="52" viewBox="0 0 185 52" fill="none" xmlns="http://www.w3.org/2000/svg">
<g clip-path="url(#clip0_16_7)">
<path d="M40.5583 9.8488C40.5227 9.5905 40.296 9.44721 40.1078 9.43161C39.921 9.41601 36.2622 9.36068 36.2622 9.36068C36.2622 9.36068 33.2022 6.40346 32.8999 6.10263C32.5977 5.8018 32.0074 5.89261 31.7778 5.96073C31.775 5.96215 31.2032 6.13811 30.2407 6.43468C30.0796 5.91532 29.8428 5.27676 29.5049 4.63537C28.4156 2.56646 26.82 1.47241 24.8922 1.46958C24.8894 1.46958 24.8879 1.46958 24.8851 1.46958C24.751 1.46958 24.6184 1.48235 24.4844 1.4937C24.4274 1.42558 24.3703 1.3589 24.3105 1.29362C23.4706 0.399646 22.3941 -0.0359892 21.1037 0.00232391C18.6141 0.0732742 16.1345 1.86264 14.124 5.04121C12.7095 7.27756 11.6329 10.0872 11.3278 12.2625C8.46892 13.1437 6.46983 13.7595 6.42563 13.7738C4.98264 14.225 4.93702 14.269 4.7488 15.6228C4.60906 16.6458 0.833328 45.7014 0.833328 45.7014L32.4751 51.1475L46.1891 47.7547C46.1891 47.7547 40.594 10.1071 40.5583 9.8488ZM28.6565 6.92281C27.9279 7.14702 27.0994 7.40244 26.2011 7.67915C26.1826 6.42475 26.0329 4.67937 25.4454 3.17096C27.3347 3.52713 28.2644 5.65422 28.6565 6.92281ZM24.5457 8.18998C22.8874 8.70079 21.078 9.25847 19.2628 9.8176C19.7733 7.87213 20.7415 5.93519 21.9307 4.66518C22.3727 4.19265 22.9915 3.6662 23.7244 3.36536C24.4131 4.79572 24.5628 6.82064 24.5457 8.18998ZM21.1535 1.6512C21.7381 1.63843 22.2301 1.76615 22.6507 2.04143C21.9777 2.38909 21.3275 2.88858 20.7172 3.5399C19.1359 5.22852 17.9239 7.84943 17.4405 10.3781C15.9334 10.8421 14.459 11.2976 13.1016 11.7148C13.9586 7.73449 17.3108 1.76189 21.1535 1.6512Z" fill="#6C6C6C"/>
<path d="M40.1091 9.43305C39.9224 9.41745 36.2636 9.36213 36.2636 9.36213C36.2636 9.36213 33.2037 6.4049 32.9014 6.10407C32.7887 5.99196 32.6362 5.93378 32.4764 5.90967L32.4779 51.1462L46.1906 47.7548C46.1906 47.7548 40.5954 10.1085 40.5598 9.85025C40.5241 9.59195 40.296 9.44865 40.1091 9.43305Z" fill="#828282"/>
<path d="M24.875 16.4501L23.2824 22.38C23.2824 22.38 21.5057 21.5755 19.3997 21.7074C16.3112 21.9019 16.2784 23.8402 16.3098 24.327C16.4781 26.979 23.4891 27.558 23.8827 33.7704C24.1921 38.6575 21.2775 42.0007 17.0784 42.2646C12.0378 42.581 9.26309 39.6224 9.26309 39.6224L10.3311 35.1014C10.3311 35.1014 13.1243 37.1987 15.3601 37.0583C16.8203 36.966 17.3421 35.784 17.2893 34.9482C17.0698 31.4886 11.3605 31.693 10.9998 26.0084C10.6961 21.225 13.853 16.3777 20.8184 15.9406C23.5019 15.769 24.875 16.4501 24.875 16.4501Z" fill="#F3EDE5"/>
<path d="M64.2485 28.8674C62.6716 28.0159 61.8612 27.2981 61.8612 26.3115C61.8612 25.0561 62.9869 24.2496 64.7449 24.2496C66.7913 24.2496 68.6185 25.1011 68.6185 25.1011L70.0596 20.7071C70.0596 20.7071 68.7345 19.6754 64.834 19.6754C59.406 19.6754 55.6442 22.7689 55.6442 27.1179C55.6442 29.5837 57.4007 31.4669 59.7441 32.811C61.6363 33.8863 62.3124 34.6491 62.3124 35.7694C62.3124 36.9348 61.3663 37.8764 59.6097 37.8764C56.9919 37.8764 54.5198 36.5308 54.5198 36.5308L52.9882 40.9248C52.9882 40.9248 55.2722 42.4491 59.1147 42.4491C64.701 42.4491 68.7105 39.7144 68.7105 34.7828C68.709 32.1397 66.6824 30.2565 64.2485 28.8674Z" fill="#6C6C6C"/>
<path d="M86.5034 19.6318C83.7553 19.6318 81.5929 20.9323 79.9269 22.9041L79.8364 22.859L82.2236 10.4413H76.0066L69.9705 42.0466H76.1876L78.2595 31.2431C79.0698 27.163 81.187 24.6535 83.1698 24.6535C84.5656 24.6535 85.1073 25.5951 85.1073 26.9406C85.1073 27.7921 85.0168 28.8238 84.8371 29.6753L82.4951 42.048H88.7125L91.1444 29.2713C91.4151 27.9258 91.5958 26.3129 91.5958 25.2362C91.5932 21.7387 89.7464 19.6318 86.5034 19.6318Z" fill="#6C6C6C"/>
<path d="M105.648 19.6318C98.1693 19.6318 93.2156 26.3566 93.2156 33.8427C93.2156 38.6392 96.188 42.4942 101.775 42.4942C109.117 42.4942 114.073 35.9496 114.073 28.2833C114.073 23.8457 111.459 19.6318 105.648 19.6318ZM102.585 37.7441C100.467 37.7441 99.5664 35.951 99.5664 33.709C99.5664 30.1678 101.414 24.3848 104.792 24.3848C107 24.3848 107.719 26.2678 107.719 28.106C107.719 31.9159 105.874 37.7441 102.585 37.7441Z" fill="#6C6C6C"/>
<path d="M129.974 19.6318C125.778 19.6318 123.397 23.308 123.397 23.308H123.308L123.668 19.9907H118.172C117.903 22.2327 117.406 25.6387 116.911 28.1947L112.587 50.8332H118.804L120.514 41.6877H120.65C120.65 41.6877 121.926 42.4942 124.3 42.4942C131.597 42.4942 136.371 35.0531 136.371 27.5205C136.371 23.3531 134.524 19.6318 129.974 19.6318ZM124.028 37.8327C122.414 37.8327 121.459 36.9362 121.459 36.9362L122.496 31.1531C123.217 27.2981 125.243 24.7422 127.406 24.7422C129.299 24.7422 129.884 26.4902 129.884 28.1496C129.884 32.1397 127.496 37.8327 124.028 37.8327Z" fill="#6C6C6C"/>
<path d="M145.246 10.7551C143.264 10.7551 141.687 12.3244 141.687 14.3413C141.687 16.1794 142.858 17.4348 144.615 17.4348H144.705C146.643 17.4348 148.309 16.1343 148.354 13.8487C148.354 12.0556 147.138 10.7551 145.246 10.7551Z" fill="#6C6C6C"/>
<path d="M136.552 42.0466H142.768L147.003 20.1258H140.741L136.552 42.0466Z" fill="#6C6C6C"/>
<path d="M162.815 20.0808H158.49L158.715 19.0491C159.075 16.9422 160.337 15.059 162.409 15.059C163.515 15.059 164.39 15.3729 164.39 15.3729L165.607 10.5314C165.607 10.5314 164.526 9.99371 162.228 9.99371C160.02 9.99371 157.814 10.6214 156.147 12.0556C154.029 13.8487 153.038 16.4482 152.543 19.0491L152.364 20.0808H149.48L148.579 24.7436H151.463L148.174 42.048H154.391L157.68 24.7436H161.959L162.815 20.0808Z" fill="#6C6C6C"/>
<path d="M177.77 20.1259C177.77 20.1259 173.884 29.8695 172.139 35.1882H172.048C171.93 33.4754 170.517 20.1259 170.517 20.1259H163.984L167.725 40.2535C167.816 40.7012 167.771 40.9714 167.59 41.2852C166.868 42.6744 165.652 44.0199 164.211 45.0065C163.04 45.8579 161.733 46.3956 160.698 46.7545L162.409 52C163.671 51.7312 166.283 50.6996 168.49 48.6376C171.329 45.9931 173.941 41.9129 176.643 36.3535L184.256 20.1244H177.77V20.1259Z" fill="#6C6C6C"/>
</g>
<defs>
<clipPath id="clip0_16_7">
<rect width="184.167" height="52" fill="white" transform="translate(0.833328)"/>
</clipPath>
</defs>
</svg>
