<svg width="21" height="24" viewBox="0 0 21 24" fill="none" xmlns="http://www.w3.org/2000/svg">
<path d="M18.3923 4.62136C18.3758 4.50016 18.2708 4.43292 18.1837 4.4256C18.0973 4.41828 16.4032 4.39232 16.4032 4.39232C16.4032 4.39232 14.9865 3.0047 14.8465 2.86354C14.7066 2.72238 14.4333 2.765 14.327 2.79696C14.3257 2.79762 14.061 2.88019 13.6154 3.01935C13.5408 2.77565 13.4311 2.47602 13.2747 2.17506C12.7703 1.20426 12.0316 0.6909 11.139 0.689572C11.1377 0.689572 11.137 0.689572 11.1357 0.689572C11.0737 0.689572 11.0123 0.695564 10.9503 0.700888C10.9238 0.668928 10.8974 0.637636 10.8697 0.607004C10.4808 0.187526 9.98245 -0.0168872 9.38498 0.00109045C8.23232 0.0343825 7.0843 0.874008 6.15346 2.36549C5.49857 3.41486 5.00013 4.73324 4.85886 5.75396C3.53521 6.16744 2.60965 6.4564 2.58919 6.46308C1.92109 6.6748 1.89997 6.69544 1.81283 7.33068C1.74813 7.81072 0 21.4445 0 21.4445L14.6498 24L20.9993 22.408C20.9993 22.408 18.4088 4.74256 18.3923 4.62136ZM12.8819 3.2484C12.5446 3.3536 12.161 3.47345 11.7451 3.60329C11.7365 3.01469 11.6672 2.1957 11.3952 1.48791C12.2699 1.65504 12.7003 2.65314 12.8819 3.2484ZM10.9786 3.84299C10.2108 4.08268 9.37308 4.34436 8.5327 4.60672C8.76903 3.69384 9.2173 2.78497 9.76789 2.18904C9.97253 1.96732 10.259 1.72029 10.5984 1.57913C10.9172 2.2503 10.9865 3.20046 10.9786 3.84299ZM9.40806 0.774796C9.67874 0.768804 9.9065 0.828732 10.1013 0.957904C9.78966 1.12104 9.48861 1.35541 9.20608 1.66103C8.47393 2.45338 7.91279 3.68319 7.68899 4.86972C6.99118 5.08744 6.30857 5.3012 5.68009 5.49696C6.07688 3.62926 7.6289 0.826732 9.40806 0.774796Z" fill="#95BF47"/>
<path d="M18.1843 4.42628C18.0979 4.41896 16.4039 4.393 16.4039 4.393C16.4039 4.393 14.9872 3.00537 14.8472 2.86422C14.7951 2.81161 14.7244 2.78431 14.6505 2.773L14.6511 23.9994L21 22.408C21 22.408 18.4095 4.74324 18.393 4.62204C18.3765 4.50084 18.2708 4.4336 18.1843 4.42628Z" fill="#5E8E3E"/>
<path d="M11.1311 7.71888L10.3937 10.5014C10.3937 10.5014 9.57112 10.1239 8.59606 10.1858C7.1661 10.277 7.15092 11.1866 7.16547 11.415C7.24336 12.6594 10.4894 12.9311 10.6716 15.8461C10.8149 18.1393 9.46547 19.708 7.52129 19.8318C5.18758 19.9803 3.90289 18.592 3.90289 18.592L4.39737 16.4707C4.39737 16.4707 5.69062 17.4548 6.72577 17.3889C7.4018 17.3456 7.6434 16.791 7.61897 16.3988C7.51733 14.7754 4.87399 14.8713 4.70699 12.204C4.56636 9.95944 6.028 7.68492 9.2529 7.47984C10.4953 7.39928 11.1311 7.71888 11.1311 7.71888Z" fill="black"/>
</svg>
