<svg width="24" height="24" viewBox="0 0 24 24" fill="none" xmlns="http://www.w3.org/2000/svg">
<path d="M9 5V5.38C8.17 5.05 7.28 4.88 6.39 4.88C4.97 4.88 3.55 5.31 2.34 6.17C1.83 6.53 1.77 7.26 2.21 7.7L4.78 10.27H5.89V11.38C6.75 12.24 7.87 12.69 9 12.74V15H7C6.45 15 6 15.45 6 16V18C6 19.1 6.9 20 8 20H18C19.66 20 21 18.66 21 17V5C21 4.45 20.55 4 20 4H10C9.45 4 9 4.45 9 5ZM7.89 10.41V8.26H5.61L4.57 7.22C5.14 7 5.76 6.88 6.39 6.88C7.73 6.88 8.98 7.4 9.93 8.34L11.34 9.75L11.14 9.95C10.63 10.46 9.95 10.75 9.22 10.75C8.75 10.75 8.29 10.63 7.89 10.41ZM19 17C19 17.55 18.55 18 18 18C17.45 18 17 17.55 17 17V16C17 15.45 16.55 15 16 15H11V12.41C11.57 12.18 12.1 11.84 12.56 11.38L12.76 11.18L15.59 14H17V12.59L11 6.62V6H19V17Z" fill="#88AED0"/>
</svg>
