<svg width="174" height="52" viewBox="0 0 174 52" fill="none" xmlns="http://www.w3.org/2000/svg">
<g clip-path="url(#clip0_16_19)">
<path d="M25.9935 1.52588e-05C11.638 1.52588e-05 0 11.6405 0 25.9996C0 40.3601 11.638 52 25.9935 52C40.3497 52 51.987 40.3601 51.987 25.9996C51.987 11.6415 40.3503 0.0012562 25.9932 0.0012562L25.9935 1.52588e-05ZM37.914 37.4988C37.4471 38.2648 36.4495 38.5048 35.6862 38.0381C29.5823 34.3065 21.8994 33.4636 12.8513 35.531C11.9794 35.731 11.1103 35.1843 10.9117 34.3124C10.7121 33.4403 11.2562 32.571 12.1303 32.3723C22.0319 30.108 30.5253 31.0826 37.3767 35.2703C38.1402 35.7391 38.3823 36.7357 37.9136 37.4994L37.914 37.4988ZM41.0955 30.4204C40.5076 31.3745 39.2604 31.6738 38.3078 31.0879C31.3224 26.7928 20.6705 25.5488 12.4062 28.058C11.3344 28.3818 10.2024 27.7776 9.87711 26.7075C9.55429 25.6354 10.1586 24.5053 11.2286 24.1793C20.6687 21.3142 32.4041 22.702 40.4278 27.6339C41.3808 28.2207 41.6818 29.4688 41.0952 30.4207L41.0955 30.4204ZM41.3687 23.0485C32.9898 18.0713 19.1691 17.6137 11.1705 20.0419C9.8861 20.4315 8.5278 19.7063 8.13857 18.4215C7.74933 17.1362 8.47379 15.7785 9.75914 15.3879C18.941 12.5999 34.2047 13.1386 43.85 18.8658C45.0053 19.5517 45.3843 21.0441 44.6995 22.1981C44.0166 23.3537 42.5205 23.7347 41.369 23.0485H41.3687ZM70.7197 24.0023C66.2317 22.9318 65.4327 22.1805 65.4327 20.6017C65.4327 19.1102 66.8367 18.1064 68.9244 18.1064C70.9482 18.1064 72.9549 18.8686 75.0587 20.4378C75.1224 20.4853 75.2022 20.5042 75.2807 20.4918C75.3592 20.48 75.4287 20.4368 75.4747 20.372L77.6661 17.2821C77.7561 17.1548 77.7316 16.9794 77.6102 16.8822C75.1063 14.8726 72.2866 13.8955 68.9908 13.8955C64.1449 13.8955 60.7601 16.8043 60.7601 20.9662C60.7601 25.4292 63.68 27.0095 68.7258 28.2294C73.0204 29.2188 73.7452 30.0478 73.7452 31.5297C73.7452 33.1718 72.2795 34.1926 69.9208 34.1926C67.3011 34.1926 65.1643 33.3099 62.7739 31.2394C62.7146 31.1882 62.6333 31.1649 62.5582 31.1692C62.479 31.1758 62.4067 31.2124 62.3564 31.2729L59.8993 34.1979C59.7963 34.3193 59.8093 34.5006 59.9285 34.6056C62.7097 37.089 66.1302 38.4008 69.8215 38.4008C75.0433 38.4008 78.4176 35.5469 78.4176 31.1298C78.4269 27.4011 76.1952 25.3364 70.7291 24.0063L70.7197 24.0023ZM90.2312 19.575C87.9678 19.575 86.1113 20.4666 84.5805 22.2938V20.2372C84.5805 20.0748 84.4489 19.9426 84.2868 19.9426H80.2681C80.1058 19.9426 79.9745 20.0748 79.9745 20.2372V43.0886C79.9745 43.2509 80.1058 43.3832 80.2681 43.3832H84.2868C84.4489 43.3832 84.5805 43.2509 84.5805 43.0886V35.8754C86.1117 37.5941 87.9685 38.434 90.2312 38.434C94.4368 38.434 98.6942 35.1958 98.6942 29.0056C98.7004 22.8138 94.4418 19.5747 90.2359 19.5747L90.2312 19.575ZM94.0212 29.0056C94.0212 32.1578 92.08 34.3575 89.3003 34.3575C86.5524 34.3575 84.4796 32.0578 84.4796 29.0056C84.4796 25.9536 86.5524 23.6536 89.3003 23.6536C92.035 23.6533 94.0215 25.9036 94.0215 29.0052L94.0212 29.0056ZM109.606 19.575C104.19 19.575 99.947 23.7465 99.947 29.0729C99.947 34.3413 104.161 38.469 109.54 38.469C114.975 38.469 119.231 34.3115 119.231 29.0055C119.231 23.7179 115.004 19.5756 109.606 19.5756L109.606 19.575ZM109.606 34.3888C106.725 34.3888 104.554 32.0736 104.554 29.004C104.554 25.9213 106.65 23.6844 109.54 23.6844C112.439 23.6844 114.626 25.9995 114.626 29.0714C114.626 32.1534 112.515 34.3888 109.606 34.3888H109.606ZM130.797 19.9426H126.375V15.4202C126.375 15.2582 126.244 15.1259 126.081 15.1259H122.063C121.901 15.1259 121.769 15.2582 121.769 15.4202V19.9426H119.837C119.675 19.9426 119.544 20.0748 119.544 20.2372V23.6918C119.544 23.8539 119.675 23.9865 119.837 23.9865H121.769V32.9253C121.769 36.5376 123.566 38.3691 127.111 38.3691C128.553 38.3691 129.749 38.0713 130.876 37.4321C130.967 37.3808 131.024 37.2821 131.024 37.1772V33.8874C131.024 33.7859 130.971 33.69 130.884 33.6369C130.797 33.5819 130.688 33.5791 130.598 33.6235C129.824 34.0132 129.076 34.1929 128.239 34.1929C126.95 34.1929 126.375 33.6074 126.375 32.295V23.988H130.797C130.959 23.988 131.09 23.8558 131.09 23.6934V20.2391C131.096 20.0767 130.966 19.9445 130.801 19.9445L130.797 19.9426ZM146.205 19.9603V19.4048C146.205 17.7708 146.831 17.0421 148.236 17.0421C149.074 17.0421 149.747 17.2085 150.501 17.46C150.593 17.4892 150.69 17.4746 150.766 17.419C150.843 17.3635 150.887 17.2744 150.887 17.18V13.7927C150.887 13.6632 150.804 13.5487 150.679 13.5105C149.883 13.2736 148.864 13.0305 147.339 13.0305C143.627 13.0305 141.665 15.1212 141.665 19.0745V19.9252H139.734C139.572 19.9252 139.44 20.0574 139.44 20.2195V23.6918C139.44 23.8539 139.572 23.9864 139.734 23.9864H141.665V37.7742C141.665 37.9366 141.796 38.0688 141.958 38.0688H145.977C146.139 38.0688 146.271 37.9366 146.271 37.7742V23.9874H150.024L155.771 37.7717C155.119 39.2201 154.477 39.5082 153.601 39.5082C152.893 39.5082 152.148 39.2968 151.385 38.8795C151.314 38.84 151.228 38.8335 151.151 38.8575C151.074 38.8845 151.01 38.9416 150.977 39.0161L149.615 42.005C149.55 42.1463 149.606 42.3121 149.742 42.3853C151.164 43.1556 152.447 43.4844 154.034 43.4844C157.001 43.4844 158.641 42.1019 160.087 38.3824L167.059 20.3626C167.094 20.272 167.084 20.1695 167.028 20.0891C166.973 20.0093 166.884 19.9612 166.786 19.9612H162.603C162.477 19.9612 162.365 20.041 162.324 20.1586L158.039 32.403L153.344 20.1506C153.302 20.0366 153.192 19.9612 153.07 19.9612H146.204L146.205 19.9603ZM137.272 19.9426H133.253C133.091 19.9426 132.959 20.0748 132.959 20.2372V37.7742C132.959 37.9366 133.091 38.0688 133.253 38.0688H137.272C137.434 38.0688 137.566 37.9366 137.566 37.7742V20.2384C137.566 20.1997 137.559 20.1613 137.544 20.1255C137.529 20.0897 137.508 20.0572 137.48 20.0298C137.453 20.0024 137.42 19.9807 137.384 19.966C137.349 19.9512 137.31 19.9437 137.271 19.9438L137.272 19.9426ZM135.285 11.9575C133.693 11.9575 132.401 13.2466 132.401 14.839C132.401 16.4324 133.694 17.723 135.285 17.723C136.877 17.723 138.167 16.4324 138.167 14.839C138.167 13.2469 136.876 11.9575 135.287 11.9575H135.285ZM170.49 25.581C168.9 25.581 167.662 24.3034 167.662 22.752C167.662 21.2006 168.916 19.9084 170.505 19.9084C172.096 19.9084 173.333 21.1857 173.333 22.7359C173.333 24.2873 172.079 25.581 170.49 25.581H170.49ZM170.506 20.1897C169.057 20.1897 167.961 21.3415 167.961 22.752C167.961 24.1619 169.05 25.2982 170.491 25.2982C171.94 25.2982 173.037 24.1473 173.037 22.7359C173.037 21.326 171.947 20.1897 170.507 20.1897H170.506ZM171.133 23.0268L171.933 24.147H171.258L170.538 23.1193H169.919V24.147H169.354V21.1776H170.678C171.368 21.1776 171.821 21.5306 171.821 22.1249C171.825 22.6117 171.542 22.9091 171.135 23.0268H171.133V23.0268ZM170.655 21.6871H169.919V22.6263H170.655C171.022 22.6263 171.242 22.4465 171.242 22.1562C171.242 21.8507 171.021 21.6871 170.655 21.6871H170.655V21.6871Z" fill="#6C6C6C"/>
</g>
<defs>
<clipPath id="clip0_16_19">
<rect width="173.333" height="52" fill="white"/>
</clipPath>
</defs>
</svg>
