<svg width="218" height="52" viewBox="0 0 218 52" fill="none" xmlns="http://www.w3.org/2000/svg">
<g clip-path="url(#clip0_16_21)">
<path d="M126.118 27.672C126.118 22.5368 123.92 17.9995 116.485 17.9995C112.671 17.9995 109.641 19.0867 107.998 20.0382L109.203 24.1581C110.715 23.2092 113.128 22.4278 115.406 22.4278C119.17 22.4225 119.787 24.5515 119.787 25.9204V26.25C111.571 26.2367 106.377 29.0755 106.377 34.8566C106.377 38.3891 109.014 41.701 113.623 41.701C116.435 41.701 118.811 40.566 120.231 38.7745H120.369C120.369 38.7745 121.305 42.6898 126.48 41.1933C126.216 39.5533 126.118 37.8256 126.118 35.7258V27.672ZM119.989 33.0944C119.989 33.509 119.954 33.9396 119.832 34.3091C119.359 35.8906 117.727 37.2143 115.696 37.2143C113.982 37.2143 112.637 36.2441 112.637 34.2107C112.637 31.1009 116.071 30.245 119.989 30.2662" fill="#6C6C6C"/>
<path d="M0.333313 11.0124C0.333313 11.0124 5.69979 32.9676 6.55305 36.524C7.55775 40.6811 9.35723 42.2175 14.551 41.1941L17.9054 27.5798C18.7533 24.2068 19.33 21.788 19.8777 18.3512H19.9706C20.3507 21.8225 20.8983 24.2068 21.592 27.5904C21.592 27.5904 22.9609 33.7756 23.6706 37.0157C24.3617 40.2558 26.3073 42.2999 31.4028 41.1941L39.3875 11.0124H32.9417L30.2014 24.0686C29.4757 27.8509 28.8165 30.8305 28.3035 34.2966H28.2105C27.748 30.8677 27.1606 28.0104 26.4057 24.3051L23.567 11.0124H16.8422L13.812 23.9649C12.9482 27.92 12.1402 31.091 11.6325 34.4481H11.5448C11.0212 31.2983 10.3115 27.2874 9.55921 23.4811C9.55921 23.4811 7.75973 14.2073 7.12451 11.0124" fill="#6C6C6C"/>
<path d="M57.3505 27.672C57.3505 22.5368 55.1469 17.9995 47.7124 17.9995C43.9089 17.9995 40.8734 19.0867 39.2308 20.0382L40.4348 24.1581C41.942 23.2092 44.3528 22.4278 46.6387 22.4278C50.4024 22.4225 51.019 24.5515 51.019 25.9204V26.25C42.8032 26.2367 37.6041 29.0755 37.6041 34.8566C37.6041 38.3891 40.2515 41.701 44.8392 41.701C47.6778 41.701 50.033 40.566 51.4523 38.7745H51.5958C51.5958 38.7745 52.5367 42.6898 57.7066 41.1933C57.4408 39.5533 57.3505 37.8256 57.3505 35.7258V27.672ZM51.2158 33.0944C51.2158 33.509 51.1813 33.9396 51.0643 34.3091C50.5857 35.8906 48.9538 37.2143 46.9178 37.2143C45.2139 37.2143 43.8637 36.2441 43.8637 34.2107C43.8637 31.1009 47.2977 30.245 51.2158 30.2662" fill="#6C6C6C"/>
<path d="M60.6952 11.0124V41.1835H66.8298V34.7857V11.0124H60.6952Z" fill="#6C6C6C"/>
<path d="M144.946 11.0124V33.2732C144.946 36.3459 145.523 38.4883 146.764 39.8013C147.854 40.9522 149.638 41.7018 151.761 41.7018C153.585 41.7018 155.368 41.3509 156.211 41.0453L156.137 36.2529C155.507 36.3991 154.786 36.524 153.797 36.524C151.703 36.524 151.012 35.1976 151.012 32.4386V23.9171H156.355V18.1518H151.012V11.0124" fill="#6C6C6C"/>
<path d="M129.09 18.5231V41.1933H135.432V29.5831C135.432 28.9585 135.472 28.4189 135.57 27.9192C136.044 25.4712 137.901 23.9216 140.578 23.9216C141.325 23.9216 141.833 24.004 142.396 24.0917V18.1484C141.923 18.0633 141.601 18.0181 141.019 18.0181C138.646 18.0181 135.956 19.5252 134.821 22.8079H134.664V18.5231" fill="#6C6C6C"/>
<path d="M70.3923 18.5231V41.1933H76.572V27.8873C76.572 27.2627 76.6411 26.6248 76.8618 26.048C77.3642 24.7004 78.6108 23.1401 80.6122 23.1401C83.1001 23.1401 84.275 25.2399 84.275 28.2701V41.1933H90.439V27.7278C90.439 27.1404 90.5214 26.4201 90.694 25.8991C91.1885 24.3708 92.5387 23.1401 94.4047 23.1401C96.9192 23.1401 98.1366 25.1948 98.1366 28.7671V41.1933H104.295V27.8262C104.295 20.8037 100.723 18.0181 96.6666 18.0181C94.8832 18.0181 93.4638 18.4567 92.1878 19.2435C91.1087 19.9053 90.1625 20.8383 89.3145 22.0583H89.2216C88.2461 19.6182 85.9549 18.0181 82.9619 18.0181C79.1238 18.0181 77.3801 19.9558 76.3541 21.5932H76.261V18.5231" fill="#6C6C6C"/>
<path d="M189.545 17.5057C190.757 17.5057 191.777 16.8731 191.91 16.0597L193.112 2.45069C193.112 1.10308 191.525 0 189.545 0C187.554 0 185.977 1.10308 185.977 2.45069L187.19 16.0597C187.317 16.8731 188.332 17.5057 189.545 17.5057Z" fill="#6C6C6C"/>
<path d="M182.173 21.7641C182.774 20.7008 182.739 19.5207 182.091 18.9944L170.874 11.1506C169.707 10.4702 167.961 11.2809 166.961 12.9979C165.965 14.7123 166.166 16.6368 167.309 17.3039L179.728 23.0612C180.522 23.3589 181.562 22.806 182.173 21.7534" fill="#6C6C6C"/>
<path d="M196.914 21.7529C197.55 22.8055 198.589 23.3583 199.362 23.0766L211.781 17.3034C212.934 16.6229 213.107 14.7171 212.132 13.0027C211.135 11.2857 209.378 10.4803 208.214 11.1474L196.994 18.9833C196.372 19.5175 196.327 20.703 196.928 21.7635" fill="#6C6C6C"/>
<path d="M189.545 34.505C190.757 34.505 191.777 35.1376 191.91 35.9509L193.112 49.56C193.112 50.9076 191.525 52 189.545 52C187.554 52 185.977 50.9076 185.977 49.56L187.19 35.9509C187.317 35.1376 188.332 34.505 189.545 34.505Z" fill="#6C6C6C"/>
<path d="M196.914 30.2585C197.55 29.2033 198.589 28.6398 199.362 28.9455L211.781 34.708C212.934 35.3752 213.107 37.2969 212.132 39.014C211.135 40.7178 209.378 41.5285 208.214 40.8613L196.994 33.0149C196.372 32.4859 196.327 31.3058 196.928 30.2585" fill="#6C6C6C"/>
<path d="M182.173 30.2468C182.774 31.3074 182.739 32.4849 182.091 33.0165L170.874 40.8496C169.707 41.5301 167.961 40.7168 166.961 39.013C165.965 37.2985 166.166 35.3741 167.309 34.707L179.728 28.9444C180.522 28.6414 181.562 29.1996 182.173 30.2468Z" fill="#6C6C6C"/>
<path d="M215.415 39.6671H215.569C215.779 39.6671 215.864 39.7336 215.888 39.901C215.933 40.0871 215.957 40.212 216.002 40.2652H216.401C216.366 40.2253 216.321 40.1243 216.297 39.8904C216.252 39.6884 216.148 39.5741 216.002 39.5342V39.497C216.204 39.4518 216.321 39.3162 216.321 39.1488C216.321 38.9973 216.252 38.8883 216.183 38.8192C216.05 38.7554 215.922 38.7049 215.641 38.7049C215.391 38.7049 215.207 38.7262 215.061 38.7607V40.2652H215.415V39.6671ZM215.425 38.9813L215.606 38.9574C215.819 38.9574 215.933 39.0558 215.933 39.194C215.933 39.3481 215.779 39.4199 215.582 39.4199H215.425V38.9813ZM215.651 37.9607C214.779 37.9607 214.088 38.6411 214.088 39.4757C214.088 40.3316 214.779 41.0121 215.651 41.0121C216.534 41.0121 217.204 40.3316 217.204 39.4757C217.204 38.6411 216.534 37.9607 215.651 37.9607ZM215.651 38.2663C216.321 38.2663 216.818 38.8086 216.818 39.4757C216.818 40.1482 216.321 40.7064 215.651 40.6958C214.981 40.6958 214.474 40.1482 214.474 39.4757C214.474 38.8086 214.981 38.2663 215.641 38.2663" fill="#6C6C6C"/>
</g>
<defs>
<clipPath id="clip0_16_21">
<rect width="216.87" height="52" fill="white" transform="translate(0.333313)"/>
</clipPath>
</defs>
</svg>
