<svg width="105" height="32" viewBox="0 0 105 32" fill="none" xmlns="http://www.w3.org/2000/svg">
<path d="M27.9894 17.3814C26.0498 9.62055 19.3978 3.35776 12.384 7.20499C12.384 7.20499 8.85016 6.0359 8.34063 5.68267C7.84439 5.33882 7.06291 4.97621 7.62792 6.02339C7.95848 6.63451 8.31171 7.33003 9.50582 8.61557C6.10794 11.9923 7.10745 16.1373 5.9071 18.8631C4.88804 21.1779 3.89322 22.5619 4.88336 24.3147C5.91257 26.1356 8.57898 27.0202 10.3678 25.1431C11.34 24.1217 10.7359 23.6294 12.8154 21.8593C14.9434 21.435 16.2492 20.4597 16.2492 18.4404C16.2492 18.4404 16.8705 18.1418 17.6762 23.1363C18.0326 25.3385 17.5535 27.5376 17.6457 30H27.9894V17.3814Z" fill="#C1CDD5"/>
<path d="M24.79 6.60326C25.2049 7.62856 25.4527 9.50255 25.255 10.7592C25.1377 7.69343 22.7636 5.61625 21.8352 5.13798C20.1144 4.24944 18.4186 4.37291 16.5219 4.53468C16.6087 4.66597 16.8368 5.1708 16.772 5.74363C16.3977 5.05983 15.5185 4.63393 14.9488 4.75037C13.886 4.96684 12.9474 5.27943 12.2331 5.65376C11.8393 5.73347 11.2571 5.97651 10.3795 6.51417C8.88605 7.42928 7.11678 9.90424 5.11462 9.25795C5.92893 11.2117 7.95218 10.6998 7.95218 10.6998C8.89543 9.1759 11.1305 7.74657 12.7724 7.22063C18.7265 5.85694 22.63 9.90814 24.8314 14.565C25.4316 15.8349 26.8718 20.1385 27.9894 22.608V10.4278C27.404 9.61665 26.9883 8.06932 24.79 6.60326Z" fill="#60379A"/>
<path d="M10.6319 4.7277C11.0797 5.34351 13.1608 5.3482 14.2236 7.71296C15.2856 10.0777 12.7052 9.76825 11.7697 8.67418C10.7272 7.45429 10.2607 6.4368 10.0778 5.55451C9.98092 5.08874 9.72537 3.48436 10.6319 4.7277Z" fill="#C1CDD5"/>
<path d="M10.9601 5.74362C11.7072 6.19141 12.6513 6.92757 12.9271 7.77235C13.2014 8.61713 12.3746 8.46865 11.8729 7.73953C11.372 7.00962 11.1383 6.1961 10.8687 5.97103C10.5983 5.74518 10.9601 5.74362 10.9601 5.74362Z" fill="#758795"/>
<path d="M11.7776 13.9875C12.1858 13.9875 12.5168 13.6565 12.5168 13.2482C12.5168 12.8399 12.1858 12.5089 11.7776 12.5089C11.3693 12.5089 11.0383 12.8399 11.0383 13.2482C11.0383 13.6565 11.3693 13.9875 11.7776 13.9875Z" fill="#292F33"/>
<path d="M6.60026 22.8698C6.69326 23.384 6.45881 23.8568 6.07667 23.9255C5.69374 23.9951 5.30769 23.6348 5.21391 23.1206C5.12092 22.6056 5.35614 22.132 5.73829 22.0625C6.12121 21.9937 6.50727 22.354 6.60026 22.8698Z" fill="#53626C"/>
<path d="M10.6749 8.21465L10.6772 8.21309L10.6733 8.20762L10.6608 8.19668C10.6546 8.19121 10.6522 8.18183 10.646 8.17714C10.6389 8.17167 10.6296 8.16855 10.6218 8.16308C9.71914 7.39722 0.585186 1.47907 0.0272084 2.03704C-0.542492 2.60674 8.01708 9.47909 8.5688 9.89953L8.5774 9.90422L9.00018 10.2473C9.00643 10.2528 9.00799 10.2614 9.01425 10.266C9.0244 10.2739 9.03613 10.2778 9.04707 10.2848L9.0838 10.3145L9.07676 10.302C9.5183 10.5841 10.1919 10.3911 10.6233 9.83935C11.0602 9.2806 11.0742 8.56945 10.6749 8.21465Z" fill="#EE7C0E"/>
<path d="M3.51106 3.62424L3.51809 3.6047C3.28286 3.46872 3.05389 3.33821 2.83195 3.21396C2.81944 3.24366 2.81476 3.26788 2.79991 3.29992C2.71238 3.48982 2.59985 3.67816 2.46465 3.85946C2.33493 4.03451 2.19192 4.19081 2.04187 4.32444C2.02624 4.33851 2.01374 4.34476 1.99811 4.35805C2.1841 4.52997 2.38025 4.70659 2.58031 4.88633C2.76318 4.72222 2.93667 4.53544 3.0914 4.32601C3.25864 4.10172 3.40009 3.86571 3.51106 3.62424ZM5.28893 5.9257C5.52806 5.60529 5.69608 5.28332 5.8047 4.97854C5.57651 4.8371 5.34832 4.69721 5.12013 4.55811C5.06073 4.79099 4.9271 5.10436 4.66218 5.45837C4.41992 5.78425 4.18313 5.99056 3.98698 6.11873C4.18938 6.293 4.39335 6.46648 4.59575 6.63841C4.84114 6.44773 5.07949 6.20703 5.28893 5.9257ZM7.56929 7.58635C7.85453 7.20342 8.04521 6.81815 8.1429 6.46336L7.43487 6.00541C7.4169 6.23673 7.30046 6.63841 6.94176 7.11902C6.61979 7.55196 6.30016 7.78094 6.08213 7.88331L6.71826 8.40768C7.016 8.20763 7.31296 7.9302 7.56929 7.58635Z" fill="#C43512"/>
<path d="M42.48 23.27C41.448 23.27 40.539 23.06 39.753 22.64C38.973 22.22 38.361 21.629 37.917 20.867C37.479 20.105 37.26 19.211 37.26 18.185V10.058L39.456 10.04V18.131C39.456 18.617 39.537 19.052 39.699 19.436C39.867 19.82 40.092 20.147 40.374 20.417C40.656 20.681 40.98 20.882 41.346 21.02C41.712 21.158 42.09 21.227 42.48 21.227C42.882 21.227 43.263 21.158 43.623 21.02C43.989 20.876 44.313 20.672 44.595 20.408C44.877 20.138 45.099 19.811 45.261 19.427C45.423 19.043 45.504 18.611 45.504 18.131V10.04H47.7V18.185C47.7 19.211 47.478 20.105 47.034 20.867C46.596 21.629 45.984 22.22 45.198 22.64C44.418 23.06 43.512 23.27 42.48 23.27ZM56.9381 23V18.32C56.9381 18.014 56.9171 17.675 56.8751 17.303C56.8331 16.931 56.7341 16.574 56.5781 16.232C56.4281 15.884 56.2001 15.599 55.8941 15.377C55.5941 15.155 55.1861 15.044 54.6701 15.044C54.3941 15.044 54.1211 15.089 53.8511 15.179C53.5811 15.269 53.3351 15.425 53.1131 15.647C52.8971 15.863 52.7231 16.163 52.5911 16.547C52.4591 16.925 52.3931 17.411 52.3931 18.005L51.1061 17.456C51.1061 16.628 51.2651 15.878 51.5831 15.206C51.9071 14.534 52.3811 14 53.0051 13.604C53.6291 13.202 54.3971 13.001 55.3091 13.001C56.0291 13.001 56.6231 13.121 57.0911 13.361C57.5591 13.601 57.9311 13.907 58.2071 14.279C58.4831 14.651 58.6871 15.047 58.8191 15.467C58.9511 15.887 59.0351 16.286 59.0711 16.664C59.1131 17.036 59.1341 17.339 59.1341 17.573V23H56.9381ZM50.1971 23V13.28H52.1321V16.295H52.3931V23H50.1971ZM61.6627 11.804V9.815H63.8317V11.804H61.6627ZM61.6627 23V13.28H63.8317V23H61.6627ZM67.3736 23V13.127C67.3736 12.881 67.3826 12.611 67.4006 12.317C67.4186 12.017 67.4696 11.72 67.5536 11.426C67.6376 11.132 67.7906 10.865 68.0126 10.625C68.2886 10.319 68.5856 10.109 68.9036 9.995C69.2276 9.875 69.5456 9.809 69.8576 9.797C70.1696 9.779 70.4426 9.77 70.6766 9.77H71.8916V11.534H70.7666C70.3526 11.534 70.0436 11.639 69.8396 11.849C69.6416 12.053 69.5426 12.323 69.5426 12.659V23H67.3736ZM65.8076 14.981V13.28H71.8916V14.981H65.8076ZM77.3978 23.27C76.4138 23.27 75.5498 23.057 74.8058 22.631C74.0618 22.205 73.4798 21.614 73.0598 20.858C72.6458 20.102 72.4388 19.232 72.4388 18.248C72.4388 17.186 72.6428 16.265 73.0508 15.485C73.4588 14.699 74.0258 14.09 74.7518 13.658C75.4778 13.226 76.3178 13.01 77.2718 13.01C78.2798 13.01 79.1348 13.247 79.8368 13.721C80.5448 14.189 81.0698 14.852 81.4118 15.71C81.7538 16.568 81.8828 17.579 81.7988 18.743H79.6478V17.951C79.6418 16.895 79.4558 16.124 79.0898 15.638C78.7238 15.152 78.1478 14.909 77.3618 14.909C76.4738 14.909 75.8138 15.185 75.3818 15.737C74.9498 16.283 74.7338 17.084 74.7338 18.14C74.7338 19.124 74.9498 19.886 75.3818 20.426C75.8138 20.966 76.4438 21.236 77.2718 21.236C77.8058 21.236 78.2648 21.119 78.6488 20.885C79.0388 20.645 79.3388 20.3 79.5488 19.85L81.6908 20.498C81.3188 21.374 80.7428 22.055 79.9628 22.541C79.1888 23.027 78.3338 23.27 77.3978 23.27ZM74.0498 18.743V17.105H80.7368V18.743H74.0498ZM88.2259 23.27C87.2419 23.27 86.3779 23.057 85.6339 22.631C84.8899 22.205 84.3079 21.614 83.8879 20.858C83.4739 20.102 83.2669 19.232 83.2669 18.248C83.2669 17.186 83.4709 16.265 83.8789 15.485C84.2869 14.699 84.8539 14.09 85.5799 13.658C86.3059 13.226 87.1459 13.01 88.0999 13.01C89.1079 13.01 89.9629 13.247 90.6649 13.721C91.3729 14.189 91.8979 14.852 92.2399 15.71C92.5819 16.568 92.7109 17.579 92.6269 18.743H90.4759V17.951C90.4699 16.895 90.2839 16.124 89.9179 15.638C89.5519 15.152 88.9759 14.909 88.1899 14.909C87.3019 14.909 86.6419 15.185 86.2099 15.737C85.7779 16.283 85.5619 17.084 85.5619 18.14C85.5619 19.124 85.7779 19.886 86.2099 20.426C86.6419 20.966 87.2719 21.236 88.0999 21.236C88.6339 21.236 89.0929 21.119 89.4769 20.885C89.8669 20.645 90.1669 20.3 90.3769 19.85L92.5189 20.498C92.1469 21.374 91.5709 22.055 90.7909 22.541C90.0169 23.027 89.1619 23.27 88.2259 23.27ZM84.8779 18.743V17.105H91.5649V18.743H84.8779ZM98.532 23.27C97.638 23.27 96.858 23.045 96.192 22.595C95.526 22.145 95.01 21.533 94.644 20.759C94.278 19.985 94.095 19.112 94.095 18.14C94.095 17.156 94.278 16.28 94.644 15.512C95.016 14.738 95.541 14.129 96.219 13.685C96.897 13.235 97.695 13.01 98.613 13.01C99.537 13.01 100.311 13.235 100.935 13.685C101.565 14.129 102.042 14.738 102.366 15.512C102.69 16.286 102.852 17.162 102.852 18.14C102.852 19.106 102.69 19.979 102.366 20.759C102.042 21.533 101.559 22.145 100.917 22.595C100.275 23.045 99.48 23.27 98.532 23.27ZM98.865 21.326C99.447 21.326 99.915 21.194 100.269 20.93C100.629 20.66 100.89 20.285 101.052 19.805C101.22 19.325 101.304 18.77 101.304 18.14C101.304 17.504 101.22 16.949 101.052 16.475C100.89 15.995 100.635 15.623 100.287 15.359C99.939 15.089 99.489 14.954 98.937 14.954C98.355 14.954 97.875 15.098 97.497 15.386C97.119 15.668 96.84 16.052 96.66 16.538C96.48 17.018 96.39 17.552 96.39 18.14C96.39 18.734 96.477 19.274 96.651 19.76C96.831 20.24 97.104 20.621 97.47 20.903C97.836 21.185 98.301 21.326 98.865 21.326ZM101.304 23V16.178H101.034V10.04H103.221V23H101.304Z" fill="black"/>
</svg>
