<svg width="162" height="21" viewBox="0 0 162 21" fill="none" xmlns="http://www.w3.org/2000/svg">
<path d="M2.628 15.36C1.908 15.36 1.308 15.204 0.828 14.892C0.36 14.58 0.126 14.124 0.126 13.524C0.126 13.128 0.234 12.81 0.45 12.57C0.678 12.318 0.972 12.192 1.332 12.192C1.62 12.192 1.848 12.27 2.016 12.426C2.184 12.582 2.298 12.75 2.358 12.93C2.43 13.098 2.466 13.206 2.466 13.254C2.118 13.506 1.944 13.8 1.944 14.136C1.944 14.364 2.016 14.556 2.16 14.712C2.304 14.868 2.502 14.946 2.754 14.946C3.138 14.946 3.438 14.688 3.654 14.172C3.882 13.644 3.996 12.738 3.996 11.454V1.248L2.34 0.995999V0.6H7.56V0.995999L5.904 1.248V11.454C5.904 12.294 5.82 12.996 5.652 13.56C5.496 14.112 5.178 14.55 4.698 14.874C4.218 15.198 3.528 15.36 2.628 15.36ZM12.9594 15.18C12.0954 15.18 11.3094 14.982 10.6014 14.586C9.89344 14.178 9.32944 13.608 8.90944 12.876C8.50144 12.132 8.29744 11.286 8.29744 10.338C8.29744 9.39 8.50144 8.55 8.90944 7.818C9.32944 7.086 9.89344 6.522 10.6014 6.126C11.3094 5.718 12.0954 5.514 12.9594 5.514C13.8234 5.514 14.6094 5.718 15.3174 6.126C16.0254 6.522 16.5834 7.086 16.9914 7.818C17.4114 8.55 17.6214 9.39 17.6214 10.338C17.6214 11.286 17.4114 12.132 16.9914 12.876C16.5834 13.608 16.0254 14.178 15.3174 14.586C14.6094 14.982 13.8234 15.18 12.9594 15.18ZM12.9594 14.784C13.8474 14.784 14.5134 14.46 14.9574 13.812C15.4134 13.164 15.6414 12.306 15.6414 11.238V9.438C15.6414 8.37 15.4134 7.518 14.9574 6.882C14.5134 6.234 13.8474 5.91 12.9594 5.91C12.0714 5.91 11.3994 6.234 10.9434 6.882C10.4994 7.518 10.2774 8.37 10.2774 9.438V11.238C10.2774 12.306 10.4994 13.164 10.9434 13.812C11.3994 14.46 12.0714 14.784 12.9594 14.784ZM18.7647 14.64L20.0247 14.46V1.14L18.7647 0.959999V0.6H21.8247V7.62C22.2687 6.972 22.7907 6.462 23.3907 6.09C23.9907 5.706 24.6387 5.514 25.3347 5.514C26.1987 5.514 26.8767 5.73 27.3687 6.162C27.8727 6.594 28.1247 7.236 28.1247 8.088V14.46L29.3847 14.64V15H25.2447V14.64L26.3247 14.46V8.124C26.3247 7.5 26.1987 7.02 25.9467 6.684C25.6947 6.336 25.3047 6.162 24.7767 6.162C24.2247 6.162 23.6907 6.366 23.1747 6.774C22.6707 7.17 22.2207 7.662 21.8247 8.25V14.46L22.9047 14.64V15H18.7647V14.64ZM30.193 14.64L31.453 14.46V6.216L30.193 6.036V5.676H33.253V7.62C33.697 6.972 34.219 6.462 34.819 6.09C35.419 5.706 36.067 5.514 36.763 5.514C37.627 5.514 38.305 5.73 38.797 6.162C39.301 6.594 39.553 7.236 39.553 8.088V14.46L40.813 14.64V15H36.673V14.64L37.753 14.46V8.124C37.753 7.5 37.627 7.02 37.375 6.684C37.123 6.336 36.733 6.162 36.205 6.162C35.653 6.162 35.119 6.366 34.603 6.774C34.099 7.17 33.649 7.662 33.253 8.25V14.46L34.333 14.64V15H30.193V14.64ZM44.5888 15.18C43.8208 15.18 43.1908 14.982 42.6988 14.586C42.2068 14.178 41.9608 13.578 41.9608 12.786C41.9608 11.658 42.4348 10.86 43.3828 10.392C44.3308 9.912 45.4288 9.672 46.6768 9.672H47.8828V8.286C47.8828 7.662 47.8108 7.182 47.6668 6.846C47.5348 6.498 47.3248 6.258 47.0368 6.126C46.7488 5.982 46.3588 5.91 45.8668 5.91C45.3028 5.91 44.8828 6.024 44.6068 6.252C44.3308 6.468 44.1928 6.762 44.1928 7.134C44.1928 7.482 44.3608 7.71 44.6968 7.818C44.6968 8.118 44.5828 8.382 44.3548 8.61C44.1268 8.838 43.8568 8.952 43.5448 8.952C43.2088 8.952 42.9388 8.862 42.7348 8.682C42.5308 8.49 42.4288 8.202 42.4288 7.818C42.4288 7.122 42.7768 6.564 43.4728 6.144C44.1688 5.724 45.0388 5.514 46.0828 5.514C48.4828 5.514 49.6828 6.558 49.6828 8.646V13.794C49.6828 14.058 49.7368 14.262 49.8448 14.406C49.9648 14.538 50.1328 14.604 50.3488 14.604C50.5528 14.604 50.7148 14.538 50.8348 14.406C50.9548 14.262 51.0148 14.07 51.0148 13.83H51.3928C51.3928 14.25 51.2548 14.58 50.9788 14.82C50.7148 15.06 50.3428 15.18 49.8628 15.18C49.3108 15.18 48.8428 15.024 48.4588 14.712C48.0868 14.388 47.8948 13.89 47.8828 13.218C47.5948 13.83 47.1508 14.31 46.5508 14.658C45.9628 15.006 45.3088 15.18 44.5888 15.18ZM45.5788 14.388C45.9028 14.388 46.2328 14.292 46.5688 14.1C46.9168 13.908 47.2108 13.632 47.4508 13.272C47.6908 12.9 47.8348 12.456 47.8828 11.94V10.068H46.6768C45.6928 10.068 44.9548 10.29 44.4628 10.734C43.9828 11.166 43.7428 11.778 43.7428 12.57C43.7428 13.23 43.8988 13.698 44.2108 13.974C44.5228 14.25 44.9788 14.388 45.5788 14.388ZM55.5577 15.18C54.7657 15.18 54.1297 14.982 53.6497 14.586C53.1817 14.19 52.9477 13.56 52.9477 12.696V6.216L51.6697 6.036V5.676H52.9477V4.182L54.7477 3.732V5.676H57.0877V6.036L54.7477 6.216V12.66C54.7477 13.932 55.2037 14.568 56.1157 14.568C56.3077 14.568 56.4877 14.538 56.6557 14.478C56.8357 14.418 56.9737 14.358 57.0697 14.298C57.1777 14.238 57.2437 14.196 57.2677 14.172L57.5017 14.46C56.9617 14.94 56.3137 15.18 55.5577 15.18ZM57.9639 14.64L59.2239 14.46V1.14L57.9639 0.959999V0.6H61.0239V7.62C61.4679 6.972 61.9899 6.462 62.5899 6.09C63.1899 5.706 63.8379 5.514 64.5339 5.514C65.3979 5.514 66.0759 5.73 66.5679 6.162C67.0719 6.594 67.3239 7.236 67.3239 8.088V14.46L68.5839 14.64V15H64.4439V14.64L65.5239 14.46V8.124C65.5239 7.5 65.3979 7.02 65.1459 6.684C64.8939 6.336 64.5039 6.162 63.9759 6.162C63.4239 6.162 62.8899 6.366 62.3739 6.774C61.8699 7.17 61.4199 7.662 61.0239 8.25V14.46L62.1039 14.64V15H57.9639V14.64ZM72.3623 15.18C71.5943 15.18 70.9643 14.982 70.4723 14.586C69.9803 14.178 69.7343 13.578 69.7343 12.786C69.7343 11.658 70.2083 10.86 71.1562 10.392C72.1043 9.912 73.2023 9.672 74.4503 9.672H75.6563V8.286C75.6563 7.662 75.5843 7.182 75.4403 6.846C75.3083 6.498 75.0983 6.258 74.8103 6.126C74.5223 5.982 74.1323 5.91 73.6403 5.91C73.0763 5.91 72.6563 6.024 72.3803 6.252C72.1043 6.468 71.9663 6.762 71.9663 7.134C71.9663 7.482 72.1343 7.71 72.4703 7.818C72.4703 8.118 72.3563 8.382 72.1283 8.61C71.9003 8.838 71.6303 8.952 71.3183 8.952C70.9823 8.952 70.7123 8.862 70.5083 8.682C70.3043 8.49 70.2023 8.202 70.2023 7.818C70.2023 7.122 70.5503 6.564 71.2463 6.144C71.9423 5.724 72.8123 5.514 73.8563 5.514C76.2563 5.514 77.4563 6.558 77.4563 8.646V13.794C77.4563 14.058 77.5103 14.262 77.6183 14.406C77.7383 14.538 77.9063 14.604 78.1223 14.604C78.3263 14.604 78.4883 14.538 78.6083 14.406C78.7283 14.262 78.7883 14.07 78.7883 13.83H79.1663C79.1663 14.25 79.0283 14.58 78.7523 14.82C78.4883 15.06 78.1163 15.18 77.6363 15.18C77.0843 15.18 76.6163 15.024 76.2323 14.712C75.8603 14.388 75.6683 13.89 75.6563 13.218C75.3683 13.83 74.9243 14.31 74.3243 14.658C73.7363 15.006 73.0823 15.18 72.3623 15.18ZM73.3523 14.388C73.6763 14.388 74.0063 14.292 74.3423 14.1C74.6903 13.908 74.9843 13.632 75.2243 13.272C75.4643 12.9 75.6083 12.456 75.6563 11.94V10.068H74.4503C73.4663 10.068 72.7283 10.29 72.2363 10.734C71.7563 11.166 71.5163 11.778 71.5163 12.57C71.5163 13.23 71.6723 13.698 71.9843 13.974C72.2963 14.25 72.7523 14.388 73.3523 14.388ZM79.6051 14.64L80.8651 14.46V6.216L79.6051 6.036V5.676H82.6651V7.62C83.1091 6.972 83.6311 6.462 84.2311 6.09C84.8311 5.706 85.4791 5.514 86.1751 5.514C87.0391 5.514 87.7171 5.73 88.2091 6.162C88.7131 6.594 88.9651 7.236 88.9651 8.088V14.46L90.2251 14.64V15H86.0851V14.64L87.1651 14.46V8.124C87.1651 7.5 87.0391 7.02 86.7871 6.684C86.5351 6.336 86.1451 6.162 85.6171 6.162C85.0651 6.162 84.5311 6.366 84.0151 6.774C83.5111 7.17 83.0611 7.662 82.6651 8.25V14.46L83.7451 14.64V15H79.6051V14.64ZM101.278 15.36C100.162 15.36 99.0636 15.042 97.9836 14.406L96.4536 15.18H96.0576V10.554H96.4536L98.0016 13.902C98.9976 14.61 100.138 14.964 101.422 14.964C102.478 14.964 103.348 14.688 104.032 14.136C104.728 13.572 105.076 12.786 105.076 11.778C105.076 11.046 104.854 10.47 104.41 10.05C103.966 9.618 103.246 9.276 102.25 9.024L99.2616 8.25C98.2176 7.974 97.4316 7.506 96.9036 6.846C96.3756 6.174 96.1116 5.382 96.1116 4.47C96.1116 3.642 96.2736 2.91 96.5976 2.274C96.9336 1.626 97.4196 1.128 98.0556 0.78C98.6916 0.419999 99.4476 0.239999 100.324 0.239999C101.416 0.239999 102.394 0.425999 103.258 0.797999L104.572 0.239999H104.968V3.912H104.572L103.276 1.284C102.376 0.851999 101.398 0.635999 100.342 0.635999C99.2976 0.635999 98.4756 0.905999 97.8756 1.446C97.2756 1.974 96.9756 2.676 96.9756 3.552C96.9756 4.2 97.1856 4.71 97.6056 5.082C98.0376 5.454 98.6676 5.748 99.4956 5.964L102.718 6.81C103.762 7.074 104.536 7.53 105.04 8.178C105.556 8.814 105.814 9.786 105.814 11.094C105.814 12.426 105.4 13.47 104.572 14.226C103.756 14.982 102.658 15.36 101.278 15.36ZM107.218 19.734L108.478 19.554V6.234L107.218 6.054V5.694H110.278V7.584C110.578 6.936 110.98 6.432 111.484 6.072C112 5.7 112.612 5.514 113.32 5.514C114.172 5.514 114.922 5.718 115.57 6.126C116.218 6.522 116.722 7.086 117.082 7.818C117.442 8.538 117.622 9.384 117.622 10.356C117.622 11.328 117.442 12.18 117.082 12.912C116.722 13.632 116.218 14.19 115.57 14.586C114.922 14.982 114.172 15.18 113.32 15.18C112.612 15.18 112 15 111.484 14.64C110.98 14.268 110.578 13.764 110.278 13.128V19.554L111.97 19.734V20.094H107.218V19.734ZM113.14 14.73C114.808 14.73 115.642 13.572 115.642 11.256V9.456C115.642 7.128 114.808 5.964 113.14 5.964C112.612 5.964 112.132 6.12 111.7 6.432C111.268 6.732 110.926 7.14 110.674 7.656C110.422 8.172 110.29 8.73 110.278 9.33V11.256C110.278 11.868 110.398 12.444 110.638 12.984C110.89 13.512 111.232 13.938 111.664 14.262C112.108 14.574 112.6 14.73 113.14 14.73ZM123.915 15.18C123.027 15.18 122.223 14.982 121.503 14.586C120.783 14.178 120.213 13.608 119.793 12.876C119.373 12.144 119.163 11.298 119.163 10.338C119.163 9.378 119.367 8.538 119.775 7.818C120.195 7.086 120.753 6.522 121.449 6.126C122.157 5.718 122.943 5.514 123.807 5.514C124.563 5.514 125.241 5.682 125.841 6.018C126.441 6.354 126.909 6.822 127.245 7.422C127.581 8.01 127.755 8.688 127.767 9.456H121.143V11.238C121.143 12.294 121.377 13.152 121.845 13.812C122.325 14.46 123.015 14.784 123.915 14.784C124.743 14.784 125.475 14.55 126.111 14.082C126.747 13.614 127.137 13.008 127.281 12.264H127.695C127.527 13.152 127.101 13.86 126.417 14.388C125.733 14.916 124.899 15.18 123.915 15.18ZM125.787 9.006C125.787 7.962 125.625 7.188 125.301 6.684C124.977 6.168 124.473 5.91 123.789 5.91C122.985 5.91 122.361 6.192 121.917 6.756C121.473 7.32 121.221 8.07 121.161 9.006H125.787ZM133.915 15.18C133.051 15.18 132.265 14.982 131.557 14.586C130.849 14.178 130.285 13.608 129.865 12.876C129.457 12.132 129.253 11.286 129.253 10.338C129.253 9.342 129.469 8.478 129.901 7.746C130.345 7.014 130.921 6.462 131.629 6.09C132.337 5.706 133.099 5.514 133.915 5.514C134.599 5.514 135.223 5.634 135.787 5.874C136.351 6.102 136.795 6.426 137.119 6.846C137.455 7.266 137.623 7.74 137.623 8.268C137.623 8.664 137.521 8.97 137.317 9.186C137.113 9.39 136.843 9.492 136.507 9.492C136.183 9.492 135.913 9.384 135.697 9.168C135.481 8.952 135.373 8.682 135.373 8.358C135.553 8.238 135.679 8.106 135.751 7.962C135.823 7.818 135.859 7.638 135.859 7.422C135.859 6.978 135.679 6.618 135.319 6.342C134.971 6.054 134.503 5.91 133.915 5.91C133.051 5.91 132.385 6.222 131.917 6.846C131.461 7.458 131.233 8.322 131.233 9.438V11.238C131.233 12.306 131.455 13.164 131.899 13.812C132.355 14.46 133.027 14.784 133.915 14.784C134.731 14.784 135.439 14.556 136.039 14.1C136.651 13.632 137.029 13.02 137.173 12.264H137.587C137.419 13.152 136.999 13.86 136.327 14.388C135.667 14.916 134.863 15.18 133.915 15.18ZM142.534 15.18C141.742 15.18 141.106 14.982 140.626 14.586C140.158 14.19 139.924 13.56 139.924 12.696V6.216L138.646 6.036V5.676H139.924V4.182L141.724 3.732V5.676H144.064V6.036L141.724 6.216V12.66C141.724 13.932 142.18 14.568 143.092 14.568C143.284 14.568 143.464 14.538 143.632 14.478C143.812 14.418 143.95 14.358 144.046 14.298C144.154 14.238 144.22 14.196 144.244 14.172L144.478 14.46C143.938 14.94 143.29 15.18 142.534 15.18ZM149.544 15.18C148.656 15.18 147.852 14.982 147.132 14.586C146.412 14.178 145.842 13.608 145.422 12.876C145.002 12.144 144.792 11.298 144.792 10.338C144.792 9.378 144.996 8.538 145.404 7.818C145.824 7.086 146.382 6.522 147.078 6.126C147.786 5.718 148.572 5.514 149.436 5.514C150.192 5.514 150.87 5.682 151.47 6.018C152.07 6.354 152.538 6.822 152.874 7.422C153.21 8.01 153.384 8.688 153.396 9.456H146.772V11.238C146.772 12.294 147.006 13.152 147.474 13.812C147.954 14.46 148.644 14.784 149.544 14.784C150.372 14.784 151.104 14.55 151.74 14.082C152.376 13.614 152.766 13.008 152.91 12.264H153.324C153.156 13.152 152.73 13.86 152.046 14.388C151.362 14.916 150.528 15.18 149.544 15.18ZM151.416 9.006C151.416 7.962 151.254 7.188 150.93 6.684C150.606 6.168 150.102 5.91 149.418 5.91C148.614 5.91 147.99 6.192 147.546 6.756C147.102 7.32 146.85 8.07 146.79 9.006H151.416ZM154.593 14.64L155.853 14.46V6.216L154.593 6.036V5.676H157.653V7.062C158.409 6.03 159.261 5.514 160.209 5.514C160.665 5.514 161.067 5.634 161.415 5.874C161.763 6.102 161.937 6.432 161.937 6.864C161.937 7.176 161.835 7.44 161.631 7.656C161.427 7.86 161.157 7.962 160.821 7.962C160.437 7.962 160.125 7.812 159.885 7.512C160.017 7.344 160.083 7.164 160.083 6.972C160.083 6.768 160.011 6.606 159.867 6.486C159.735 6.354 159.555 6.288 159.327 6.288C159.075 6.288 158.817 6.408 158.553 6.648C158.289 6.876 157.989 7.236 157.653 7.728V14.46L159.093 14.64V15H154.593V14.64Z" fill="white"/>
</svg>
