<svg width="113" height="24" viewBox="0 0 113 24" fill="none" xmlns="http://www.w3.org/2000/svg">
<g clip-path="url(#clip0_6:108)">
<path d="M11.9509 0.891425H5.35889V1.42514H7.49603V12.2926C7.49603 15.5886 6.60574 16.4789 4.55774 16.4789C3.31089 16.4789 3.04346 15.4994 3.04346 15.0537C3.04346 13.896 2.95431 13.0949 1.8846 13.0949C0.816028 13.0949 0.638885 14.1634 0.638885 14.52C0.638885 16.0343 1.35089 17.192 4.29031 17.192C7.85374 17.192 9.72346 16.0343 9.72346 12.0263V1.424H11.8617V0.891425H11.9509ZM12.8423 14.6971C12.4857 14.6971 12.1292 14.7886 11.9509 15.0537C11.6835 15.3211 11.5943 15.5886 11.5943 15.9451C11.5943 16.2994 11.6835 16.568 11.9509 16.8366C12.2183 17.1029 12.4857 17.1909 12.8423 17.1909C13.1977 17.1909 13.4652 17.1017 13.7326 16.8366C14 16.5691 14.0892 16.2994 14.0892 15.9451C14.0892 15.5886 14 15.3211 13.7326 15.0537C13.4652 14.7863 13.1977 14.6971 12.8412 14.6971H12.8423ZM27.4503 14.6971C27.0937 14.6971 26.8263 14.7886 26.5589 15.0537C26.2926 15.3211 26.2035 15.5886 26.2035 15.9451C26.2035 16.2994 26.2926 16.568 26.5589 16.8366C26.8263 17.1029 27.0937 17.1909 27.4503 17.1909C27.8069 17.1909 28.1623 17.1017 28.3417 16.8366C28.608 16.568 28.6972 16.2994 28.6972 15.9451C28.6972 15.5886 28.608 15.3211 28.3406 15.0537C28.0732 14.7863 27.8069 14.6971 27.4492 14.6971H27.4503ZM22.8172 0.891425H16.4035V1.42514H18.2743V13.8971C18.2743 14.8766 18.1852 15.1429 18.096 15.4103C18.0069 15.768 17.7395 15.9463 17.2937 16.1246C17.0275 16.2137 16.5817 16.3017 15.9577 16.3017V16.8366H22.9063V16.3017C22.2823 16.3017 21.8377 16.2137 21.5692 16.1246C21.1246 15.9463 20.8572 15.6789 20.7692 15.4114C20.6503 15.0986 20.5895 14.7667 20.5897 14.432V10.1543H22.2823C27.2709 10.1543 28.696 8.19543 28.696 5.52228C28.696 2.76114 27.8949 0.890282 22.8172 0.890282V0.891425ZM21.9257 9.53143H20.5897V1.51428H21.7486C25.5783 1.51428 26.4686 3.11771 26.4686 5.61142C26.4686 8.19428 24.9555 9.53143 21.9257 9.53143ZM49.2732 15.3211C49.1557 14.9771 49.0954 14.6161 49.0949 14.2526V1.42514H50.7863V0.891425H46.6915C46.6023 1.06971 41.7932 13.0057 41.7932 13.0057L41.704 13.096C41.6149 13.096 41.6149 13.096 41.6149 13.0069C41.6149 13.0069 36.4492 0.980567 36.4492 0.891425H31.9029V1.42628H33.8629V14.9657C33.8629 15.2343 33.7737 15.5017 33.5955 15.768C33.4172 16.0354 33.1497 16.2137 32.8823 16.3017C32.704 16.3931 32.3486 16.3931 31.9909 16.3931V16.9257H36.4457V16.3909C36.0892 16.3909 35.9109 16.3017 35.6446 16.3017C35.288 16.2126 35.1097 16.0343 34.9315 15.7669C34.7532 15.5886 34.664 15.3211 34.664 14.9657L34.5749 13.8069V3.11657H34.8423C34.8423 3.11657 40.632 16.656 40.7212 16.8343H41.1669L46.6892 3.20685H46.8675V14.2526C46.8675 14.6983 46.7783 15.0537 46.6892 15.4103C46.6 15.7669 46.3337 15.9451 45.9772 16.1234C45.604 16.2472 45.2126 16.3071 44.8195 16.3006V16.8354H51.0549V16.3006C50.6614 16.3071 50.2696 16.2473 49.896 16.1234C49.6297 15.9451 49.3623 15.6777 49.2732 15.3211ZM57.7349 5.16685C54.3497 5.16685 52.3017 7.39314 52.3017 11.224C52.3017 16.9246 56.7555 17.2811 57.6457 17.2811C59.5166 17.2811 63.08 16.1234 63.08 11.136C63.08 7.216 60.7635 5.16685 57.7349 5.16685ZM57.6457 16.568C55.152 16.568 54.7063 15.3223 54.7063 11.3131C54.7063 8.19543 54.8846 5.87885 57.6457 5.87885C60.5852 5.87885 60.5852 8.28342 60.5852 11.1337C60.5852 15.1429 59.8732 16.568 57.6457 16.568ZM71.8103 5.34514C69.8492 5.34514 69.1383 6.50285 68.6023 7.74971H68.424C68.424 7.74971 68.1577 5.968 68.0686 5.52228H64.1486V6.14628H66.2858V13.9851C66.2858 14.7863 66.1977 15.3223 66.0206 15.6766C65.8412 16.0343 65.3063 16.3006 64.5052 16.3006H64.1486V17.0137H70.7406V16.3006H70.384C69.4926 16.3006 69.1383 16.1234 68.9577 15.7669C68.7806 15.4103 68.6915 14.8754 68.6915 14.0743V9.79885C68.6915 8.46171 69.76 6.85943 71.008 6.85943C72.344 6.85943 72.2537 8.81828 73.7692 8.01714C74.4823 7.57142 74.304 5.34514 71.8103 5.34514ZM97.7303 15.6766C97.0172 15.6766 96.84 15.3223 96.7509 14.6091V8.37371C96.7509 7.304 96.5715 6.68114 95.9498 6.056C95.3258 5.43314 94.1669 5.16457 92.4755 5.16457C90.872 5.16457 89.7143 5.43314 88.912 6.056C88.2 6.592 87.8446 7.12571 87.8446 7.928C87.8446 8.28228 87.9337 8.55085 88.1109 8.64C88.2892 8.81828 88.5566 8.90742 88.8229 8.90742C89.4457 8.90742 89.8035 8.55314 89.9806 7.74971C90.072 7.12571 90.248 6.77028 90.5166 6.41257C90.8709 6.05828 91.408 5.87885 92.0297 5.87885C92.832 5.87885 93.4549 6.056 93.7223 6.50171C93.9897 6.94743 94.168 7.48228 94.168 8.19314V10.0651C92.1177 10.2434 87.1303 10.688 87.3978 14.4297C87.4869 15.8549 88.7349 17.1909 90.4263 17.1909C92.2972 17.1909 93.4538 16.1234 94.2549 15.32C94.3452 16.1223 95.1463 17.1029 96.4835 17.1029C97.9966 17.1029 98.888 16.3897 98.9783 14.5189H98.6217C98.6217 15.232 98.176 15.6777 97.7303 15.6777V15.6766ZM94.3463 14.4309V14.52L94.2572 14.6091C93.1886 15.5897 92.2983 15.9463 91.6743 15.9463C90.0709 15.9463 89.8035 14.6091 89.8035 13.9863C89.8035 11.8491 92.7429 10.7794 94.3463 10.7794V14.4309ZM111.093 15.5886C110.914 15.2331 110.647 14.6971 110.647 13.8971V8.72914C110.647 8.01714 110.558 7.304 110.29 6.85943C110.023 6.32457 109.578 5.968 109.133 5.70057C108.598 5.43314 108.064 5.34514 107.441 5.34514C105.125 5.34514 104.233 6.77028 103.699 7.57142H103.521L103.075 5.52228H99.512V6.14628H101.295V13.9851C101.295 14.6091 101.205 15.0537 101.115 15.3223C101.025 15.6766 100.761 15.9451 100.493 16.0343C100.314 16.1234 99.9577 16.2126 99.512 16.2126V16.9246H105.123V16.2126C104.589 16.1234 104.143 16.0343 103.966 15.7669C103.787 15.4994 103.61 14.9646 103.61 14.1634V11.1349C103.61 9.88914 103.61 8.64 104.056 7.928C104.501 7.12571 105.391 6.68114 106.282 6.68114C107.174 6.68114 107.618 6.94857 107.887 7.48228C108.153 7.928 108.241 9.264 108.241 10.1543V13.896C108.241 14.5189 108.333 14.9646 108.241 15.2331C108.153 15.5874 108.064 15.856 107.795 16.0331C107.618 16.2126 107.261 16.2126 106.905 16.3006V17.0137H112.341V16.3006C111.715 16.0343 111.271 15.8549 111.093 15.5886ZM85.6172 4.632C85.2606 4.72114 85.0823 5.07771 84.904 5.52343C84.8149 5.96914 84.6366 6.23542 84.3692 6.32342C84.1017 6.41371 83.8355 6.41371 83.568 6.23542C82.9452 5.70057 81.8755 5.07771 79.9155 5.07771C76.7086 5.07771 75.3726 7.304 75.3726 9.352C75.3726 11.7577 76.264 12.9166 78.3109 13.3611C78.4012 13.3611 78.4012 13.5394 78.3109 13.5394C76.6195 13.896 75.016 14.4309 75.016 16.0343C75.016 17.0149 75.5509 17.5486 76.3532 17.9051C77.1532 18.2606 78.3109 18.44 79.7372 18.44C80.9829 18.44 81.8743 18.5291 82.4092 18.5291C82.9461 18.5984 83.4622 18.7807 83.9235 19.064C84.28 19.3314 84.4583 19.7771 84.4583 20.3097C84.4583 21.112 84.0126 21.6469 83.2115 22.1817C82.4115 22.6274 81.4286 22.8057 80.0938 22.8057C79.0252 22.8057 78.0457 22.7154 77.2435 22.1817C76.6206 21.8251 76.5303 21.1131 76.6206 20.5783C76.7109 20.0434 76.5303 19.5097 75.9075 19.3314C75.718 19.2896 75.52 19.3105 75.3434 19.3909C75.1668 19.4713 75.021 19.6068 74.928 19.7771C74.7486 20.0423 74.6595 20.3989 74.6595 20.8446C74.6595 22.1806 75.7292 22.8034 76.5303 23.0709C77.7772 23.4263 78.5806 23.5166 79.648 23.5166C81.1635 23.5166 82.32 23.2491 83.2115 22.8926C84.1029 22.4469 84.6377 21.9131 84.9932 21.2891C85.3486 20.6663 85.528 20.0423 85.528 19.4183C85.528 18.6171 85.3486 17.904 84.9932 17.4594C83.8355 15.9451 82.2309 16.1223 78.6686 15.9451C76.976 15.9451 76.6195 15.5886 76.6195 15.0537C76.6195 14.2526 77.2435 13.9851 79.7372 13.5394C82.2309 13.1829 84.5463 12.2034 84.5463 9.264C84.5463 8.37257 84.3692 7.66057 84.1006 7.12685C84.6366 7.21485 85.0823 7.21485 85.5269 7.12685C86.0629 6.94857 86.328 6.68114 86.5075 6.41371C86.6857 6.05714 86.7737 5.70057 86.5966 5.43314C86.6857 4.72114 86.24 4.45371 85.6172 4.632ZM80.0057 13.0057C78.4926 13.0057 77.6892 12.4697 77.6892 9.44228C77.6892 7.30514 78.4023 5.70057 80.0057 5.70057C81.8766 5.70057 82.4103 7.12571 82.4103 9.35314C82.4103 12.56 81.4309 13.0057 80.0057 13.0057Z" fill="#ADADAD"/>
</g>
<defs>
<clipPath id="clip0_6:108">
<rect width="112" height="24" fill="white" transform="translate(0.622894)"/>
</clipPath>
</defs>
</svg>
