<?xml version="1.0" encoding="UTF-8"?>
<!DOCTYPE svg PUBLIC "-//W3C//DTD SVG 1.1//EN" "http://www.w3.org/Graphics/SVG/1.1/DTD/svg11.dtd">
<!-- Creator: CorelDRAW 2020 (64-Bit) -->
<svg xmlns="http://www.w3.org/2000/svg" xml:space="preserve" width="31.25in" height="31.25in" version="1.1" style="shape-rendering:geometricPrecision; text-rendering:geometricPrecision; image-rendering:optimizeQuality; fill-rule:evenodd; clip-rule:evenodd"
viewBox="0 0 31249.99 31249.99"
 xmlns:xlink="http://www.w3.org/1999/xlink"
 xmlns:xodm="http://www.corel.com/coreldraw/odm/2003">
 <defs>
  <style type="text/css">
   <![CDATA[
    .fil0 {fill:none}
    .fil1 {fill:#373F47;fill-rule:nonzero}
   ]]>
  </style>
 </defs>
 <g id="Analytics_x0020_Icon">
  <metadata id="CorelCorpID_0Corel-Layer"/>
  <rect class="fil0" x="-0.01" y="-0" width="31250" height="31250"/>
  <g id="_2769104477152">
   <path class="fil1" d="M10566.77 18227.28l-8271.63 0 0 8736.33 6163 -6196.72 2108.63 912.22 0 -3451.83zm-7680.19 9293.95l7680.19 0 0 -4930.81 -1919.11 -830.24 -5761.08 5761.06z"/>
   <path class="fil1" d="M19767.74 3728.76l-8271.6 0 0 18352.4 1213.11 524.82 6135.26 -13591.95 923.23 1024.5 0 -6309.77zm-8271.6 19263.7l0 4528.76 8271.6 0 0 -16231.54 -687.97 -763.69 -5946.92 13174.54 -1636.71 -708.07z"/>
   <path class="fil1" d="M28968.74 9398.06l-8271.63 0 0 1671.78 8271.63 9178.9 0 -10850.67zm-8271.63 2923.3l0 15199.87 8271.63 0 0 -6017.81 -8271.63 -9182.06z"/>
  </g>
 </g>
</svg>
