<svg width="24" height="24" viewBox="0 0 24 24" fill="none" xmlns="http://www.w3.org/2000/svg">
<path d="M6.28 3C9.516 3.001 11.253 6.491 12 8.031C12.75 6.484 14.469 3.01 17.726 3.01C19.784 3.01 22 4.319 22 7.192C22 10.634 17.256 15.043 12 20.192C6.742 15.041 2 10.633 2 7.192C2 4.516 3.965 2.999 6.28 3ZM6.281 1C3.098 1 0 3.187 0 7.192C0 11.853 5.57 16.619 12 23C18.43 16.619 24 11.853 24 7.192C24 3.181 20.903 1.01 17.726 1.01C15.522 1.01 13.28 2.052 12 4.248C10.715 2.042 8.478 1 6.281 1Z" fill="#DF1414"/>
</svg>
