<svg width="58" height="21" viewBox="0 0 58 21" fill="none" xmlns="http://www.w3.org/2000/svg">
<path d="M14.7443 6.54688H11.6761C11.6856 6.13968 11.6335 5.77983 11.5199 5.46733C11.4063 5.15009 11.2358 4.88021 11.0085 4.65767C10.786 4.43513 10.5137 4.26705 10.1918 4.15341C9.86979 4.03504 9.50758 3.97585 9.10511 3.97585C8.3286 3.97585 7.616 4.16998 6.96733 4.55824C6.31866 4.9465 5.77178 5.50994 5.3267 6.24858C4.88163 6.98248 4.57386 7.87026 4.40341 8.91193C4.23769 9.91572 4.24716 10.7562 4.43182 11.4332C4.61648 12.1103 4.94318 12.6217 5.41193 12.9673C5.88542 13.3082 6.47491 13.4787 7.1804 13.4787C7.616 13.4787 8.0303 13.4242 8.4233 13.3153C8.81629 13.2017 9.17377 13.0407 9.49574 12.8324C9.82244 12.6193 10.1065 12.3613 10.348 12.0582C10.5942 11.7552 10.786 11.4119 10.9233 11.0284H14.0128C13.8187 11.696 13.5156 12.34 13.1037 12.9602C12.6965 13.5805 12.1922 14.1345 11.5909 14.6222C10.9896 15.1051 10.3054 15.4886 9.53835 15.7727C8.77131 16.0568 7.93087 16.1989 7.01705 16.1989C5.69602 16.1989 4.56203 15.8958 3.61506 15.2898C2.67282 14.6837 1.99337 13.8101 1.5767 12.669C1.16004 11.5279 1.08191 10.1525 1.34233 8.54261C1.60275 6.98485 2.11174 5.66383 2.86932 4.57955C3.63163 3.49053 4.55729 2.6643 5.64631 2.10085C6.74006 1.5374 7.90956 1.25568 9.15483 1.25568C10.0213 1.25568 10.8049 1.37405 11.5057 1.6108C12.2064 1.84754 12.803 2.19318 13.2955 2.64773C13.7926 3.09754 14.1667 3.64915 14.4176 4.30256C14.6686 4.95597 14.7775 5.70407 14.7443 6.54688ZM19.4283 9.69318L18.3771 16H15.3587L17.7734 1.45455H20.7067L19.7976 7.01562H19.9183C20.2687 6.37169 20.7493 5.86742 21.3601 5.50284C21.9709 5.13352 22.6929 4.94886 23.5263 4.94886C24.2839 4.94886 24.916 5.11458 25.4226 5.44602C25.9339 5.77273 26.2962 6.24384 26.5092 6.85938C26.7223 7.47017 26.7578 8.2017 26.6158 9.05398L25.451 16H22.4325L23.4979 9.59375C23.6068 8.9214 23.5192 8.3982 23.2351 8.02415C22.9557 7.65009 22.5107 7.46307 21.8999 7.46307C21.4879 7.46307 21.1091 7.55066 20.7635 7.72585C20.4179 7.90104 20.1267 8.15672 19.8899 8.4929C19.6579 8.82434 19.504 9.22443 19.4283 9.69318ZM27.8178 16L29.636 5.09091H32.6616L30.8434 16H27.8178ZM31.4613 3.67045C31.0115 3.67045 30.6398 3.52131 30.3462 3.22301C30.0574 2.91998 29.939 2.56013 29.9911 2.14347C30.0432 1.71733 30.2468 1.35748 30.6019 1.06392C30.957 0.765624 31.3595 0.616476 31.8093 0.616476C32.2591 0.616476 32.6261 0.765624 32.9102 1.06392C33.1942 1.35748 33.3126 1.71733 33.2653 2.14347C33.2179 2.56013 33.0167 2.91998 32.6616 3.22301C32.3112 3.52131 31.9111 3.67045 31.4613 3.67045ZM33.267 16L35.0852 5.09091H38.0185L37.6989 6.99432H37.8125C38.125 6.31723 38.544 5.80587 39.0696 5.46023C39.5999 5.10985 40.1705 4.93466 40.7812 4.93466C40.9328 4.93466 41.0914 4.94413 41.2571 4.96307C41.4276 4.97727 41.5791 5.00095 41.7116 5.03409L41.2571 7.72585C41.1245 7.6785 40.9351 7.64062 40.6889 7.61222C40.4474 7.57907 40.2178 7.5625 40 7.5625C39.5597 7.5625 39.1501 7.65956 38.7713 7.85369C38.3925 8.04309 38.0729 8.30824 37.8125 8.64915C37.5568 8.99006 37.3887 9.38305 37.3082 9.82812L36.2926 16H33.267ZM40.7901 20.0909L43.3043 5.09091H46.2873L45.9819 6.9233H46.1168C46.2968 6.62973 46.5359 6.33144 46.8342 6.02841C47.1372 5.72064 47.5136 5.46496 47.9634 5.26136C48.4132 5.05303 48.9412 4.94886 49.5472 4.94886C50.3474 4.94886 51.0458 5.1572 51.6424 5.57386C52.239 5.9858 52.6699 6.60843 52.935 7.44176C53.2049 8.27036 53.2357 9.30966 53.0273 10.5597C52.8285 11.7765 52.4615 12.804 51.9265 13.642C51.3962 14.4754 50.7594 15.1075 50.016 15.5384C49.2773 15.9645 48.4937 16.1776 47.6651 16.1776C47.078 16.1776 46.5951 16.0805 46.2163 15.8864C45.8422 15.6922 45.551 15.4484 45.3427 15.1548C45.1344 14.8565 44.9876 14.5559 44.9023 14.2528H44.7887L43.8228 20.0909H40.7901ZM45.3569 10.5455C45.2527 11.1941 45.248 11.7599 45.3427 12.2429C45.4421 12.7259 45.641 13.1023 45.9393 13.3722C46.2376 13.6373 46.6306 13.7699 47.1183 13.7699C47.6107 13.7699 48.0487 13.6349 48.4322 13.3651C48.8157 13.0904 49.1353 12.7116 49.391 12.2287C49.6467 11.741 49.829 11.1799 49.9379 10.5455C50.0373 9.91572 50.0397 9.36174 49.945 8.88352C49.8503 8.4053 49.6561 8.03125 49.3626 7.76136C49.069 7.49148 48.6713 7.35653 48.1694 7.35653C47.6817 7.35653 47.2437 7.48674 46.8555 7.74716C46.4719 8.00758 46.1523 8.37689 45.8967 8.85511C45.641 9.33333 45.4611 9.89678 45.3569 10.5455ZM56.0298 16.1847C55.5516 16.1847 55.1586 16.0189 54.8509 15.6875C54.5478 15.3561 54.4105 14.9536 54.4389 14.4801C54.4721 14.0114 54.6686 13.616 55.0284 13.294C55.393 12.9673 55.812 12.804 56.2855 12.804C56.7401 12.804 57.1236 12.9673 57.4361 13.294C57.7486 13.6207 57.8859 14.0161 57.848 14.4801C57.8243 14.7926 57.7225 15.0791 57.5426 15.3395C57.3674 15.5952 57.1449 15.8011 56.875 15.9574C56.6051 16.1089 56.3234 16.1847 56.0298 16.1847Z" fill="#3180F5"/>
</svg>
