<svg xmlns="http://www.w3.org/2000/svg" width="256" height="256"><rect id="backgroundrect" width="100%" height="100%" x="0" y="0" fill="none" stroke="none"/>
 
 
 
 
 
 
 
 
 
 
 
 
 
 
 
<g class="currentLayer" style=""><title>Layer 1</title><g id="svg_1" class="" stroke="#dadada" stroke-opacity="1" fill="#ffffff" fill-opacity="1">
  <path d="m225.41000366210938,256 c16.875064239274025,0 30.592525025297164,-13.691577576586724 30.592525025297164,-30.592525025297164 v-194.81381248677826 c0,-16.875064239274025 -13.717459243335725,-30.592525025297164 -30.592525025297164,-30.592525025297164 h-194.81381248677826 c-16.900945906023026,0 -30.592525025297164,13.717459243335725 -30.592525025297164,30.592525025297164 v194.81381248677826 c0,16.900945906023026 13.691577576586724,30.592525025297164 30.592525025297164,30.592525025297164 h194.81381248677826 z" fill="#ffffff" stroke-width="0" id="svg_2" stroke="#dadada" stroke-opacity="1" fill-opacity="1"/>
 </g><g id="svg_3" class="" fill="#ffffff" fill-opacity="1" opacity="1" stroke="#b6b6b6" stroke-opacity="1">
  <path d="m30.582000732421875,5.191999912261963 c-14.002162205636978,0 -25.416123797250748,11.388079924864769 -25.416123797250748,25.390242130501747 v194.83969261083985 c0,14.002162205636978 11.413962362957477,25.390242130501747 25.416123797250748,25.390242130501747 h194.81381248677826 c14.002162205636978,0 25.390242130501747,-11.388079924864769 25.390242130501747,-25.390242130501747 v-194.83969261083985 c0,-14.002162205636978 -11.388079924864769,-25.390242130501747 -25.390242130501747,-25.390242130501747 h-194.81381248677826 z" fill="#ffffff" stroke-width="0" id="svg_4" fill-opacity="1" opacity="1" stroke="#b6b6b6" stroke-opacity="1"/>
 </g><path d="m123.15 22.364h9.6023v36.494h-9.6023v-36.494z" fill="#231f20" id="svg_5"/><path d="m122.58 199.84h9.6023v36.494h-9.6023v-36.494z" fill="#231f20" id="svg_6"/><path d="m198.72 122.3h36.494v9.5764h-36.494v-9.5764z" fill="#231f20" id="svg_7"/><path d="m20.525 121.7h36.494v9.6023h-36.494v-9.6023z" fill="#231f20" id="svg_8"/><g id="svg_9">
  <path d="m34.42300033569336,76.89800262451172 l4.658760179629326,-8.385768014795303 l31.886623789621353,17.677406707304954 l-4.658760179629326,8.411649681544304 l-31.886623789621353,-17.703288374053955 z" fill="#231f20" stroke-width="0" id="svg_10"/>
 </g><g id="svg_11">
  <path d="m72.69200134277344,37.87300109863281 l8.126948261930465,-5.098753913768292 l19.385618310362815,30.954871445158005 l-8.152829928679466,5.072871861347437 l-19.359736643613815,-30.92899132109642 z" fill="#231f20" stroke-width="0" id="svg_12"/>
 </g><g id="svg_13">
  <path d="m159.49000549316406,191.8000030517578 l8.282239805111885,-4.788170056061745 l18.24680954653263,31.6019208273201 l-8.282239805111885,4.814052108482599 l-18.24680954653263,-31.627804036756515 z" fill="#231f20" stroke-width="0" id="svg_14"/>
 </g><g id="svg_15">
  <path d="m187.38999938964844,166.27000427246094 l4.658760179629326,-8.385768014795303 l31.938387123119355,17.677406707304954 l-4.710523898799181,8.411649681544304 l-31.886623789621353,-17.703288374053955 z" fill="#231f20" stroke-width="0" id="svg_16"/>
 </g><g id="svg_17">
  <path d="m78.70800018310547,223.85000610351562 l-8.385768014795303,-4.658760179629326 l17.677406707304954,-31.938387123119355 l8.411649681544304,4.658760179629326 l-17.703288374053955,31.938387123119355 z" fill="#231f20" stroke-width="0" id="svg_18"/>
 </g><g id="svg_19">
  <path d="m36.29399871826172,183.30999755859375 l-5.0469898089265826,-8.126948261930465 l30.92899132109642,-19.385618310362815 l5.0469898089265826,8.152829928679466 l-30.92899132109642,19.359736643613815 z" fill="#231f20" stroke-width="0" id="svg_20"/>
 </g><g id="svg_21">
  <path d="m190.8300018310547,97.6500015258789 l-4.814052108482599,-8.308122243204593 l31.6019208273201,-18.24680954653263 l4.814052108482599,8.308122243204593 l-31.6019208273201,18.24680954653263 z" fill="#231f20" stroke-width="0" id="svg_22"/>
 </g><g id="svg_23">
  <path d="m166.41000366210938,70.3010025024414 l-8.385768014795303,-4.684641846378327 l17.677406707304954,-31.886623789621353 l8.411649681544304,4.658760179629326 l-17.703288374053955,31.91250699905777 z" fill="#231f20" stroke-width="0" id="svg_24"/>
 </g><g id="svg_25">
  <path d="m68.6989974975586,129.24000549316406 c0,-32.7666128005867 26.529049351644517,-59.29565906685639 59.29565906685639,-59.29565906685639 c32.7148494670887,0 59.243898818733214,26.529049351644517 59.243898818733214,59.29565906685639 c0,32.740729591150284 -26.529049351644517,59.2697789427948 -59.243898818733214,59.2697789427948 c-32.7666128005867,0 -59.29565906685639,-26.529049351644517 -59.29565906685639,-59.2697789427948 " fill="#231f20" stroke-width="0" id="svg_26"/>
 </g></g></svg>