<svg width="112" height="30" viewBox="0 0 112 30" fill="none" xmlns="http://www.w3.org/2000/svg">
<path d="M38.4665 22.14C37.4398 22.14 36.5198 21.9733 35.7065 21.64C34.8932 21.3067 34.2398 20.8133 33.7465 20.16C33.2665 19.5067 33.0132 18.72 32.9865 17.8H36.6265C36.6798 18.32 36.8598 18.72 37.1665 19C37.4732 19.2667 37.8732 19.4 38.3665 19.4C38.8732 19.4 39.2732 19.2867 39.5665 19.06C39.8598 18.82 40.0065 18.4933 40.0065 18.08C40.0065 17.7333 39.8865 17.4467 39.6465 17.22C39.4198 16.9933 39.1332 16.8067 38.7865 16.66C38.4532 16.5133 37.9732 16.3467 37.3465 16.16C36.4398 15.88 35.6998 15.6 35.1265 15.32C34.5532 15.04 34.0598 14.6267 33.6465 14.08C33.2332 13.5333 33.0265 12.82 33.0265 11.94C33.0265 10.6333 33.4998 9.61333 34.4465 8.88C35.3932 8.13333 36.6265 7.76 38.1465 7.76C39.6932 7.76 40.9398 8.13333 41.8865 8.88C42.8332 9.61333 43.3398 10.64 43.4065 11.96H39.7065C39.6798 11.5067 39.5132 11.1533 39.2065 10.9C38.8998 10.6333 38.5065 10.5 38.0265 10.5C37.6132 10.5 37.2798 10.6133 37.0265 10.84C36.7732 11.0533 36.6465 11.3667 36.6465 11.78C36.6465 12.2333 36.8598 12.5867 37.2865 12.84C37.7132 13.0933 38.3798 13.3667 39.2865 13.66C40.1932 13.9667 40.9265 14.26 41.4865 14.54C42.0598 14.82 42.5532 15.2267 42.9665 15.76C43.3798 16.2933 43.5865 16.98 43.5865 17.82C43.5865 18.62 43.3798 19.3467 42.9665 20C42.5665 20.6533 41.9798 21.1733 41.2065 21.56C40.4332 21.9467 39.5198 22.14 38.4665 22.14ZM52.4912 10.72C53.7978 10.72 54.8378 11.1467 55.6112 12C56.3978 12.84 56.7912 14 56.7912 15.48V22H53.3912V15.94C53.3912 15.1933 53.1978 14.6133 52.8112 14.2C52.4245 13.7867 51.9045 13.58 51.2512 13.58C50.5978 13.58 50.0778 13.7867 49.6912 14.2C49.3045 14.6133 49.1112 15.1933 49.1112 15.94V22H45.6912V10.84H49.1112V12.32C49.4578 11.8267 49.9245 11.44 50.5112 11.16C51.0978 10.8667 51.7578 10.72 52.4912 10.72ZM60.8877 9.68C60.2877 9.68 59.7944 9.50667 59.4077 9.16C59.0344 8.8 58.8477 8.36 58.8477 7.84C58.8477 7.30667 59.0344 6.86667 59.4077 6.52C59.7944 6.16 60.2877 5.98 60.8877 5.98C61.4744 5.98 61.9544 6.16 62.3277 6.52C62.7144 6.86667 62.9077 7.30667 62.9077 7.84C62.9077 8.36 62.7144 8.8 62.3277 9.16C61.9544 9.50667 61.4744 9.68 60.8877 9.68ZM62.5877 10.84V22H59.1677V10.84H62.5877ZM68.4862 12.42C68.8195 11.9 69.2795 11.48 69.8662 11.16C70.4528 10.84 71.1395 10.68 71.9262 10.68C72.8462 10.68 73.6795 10.9133 74.4262 11.38C75.1728 11.8467 75.7595 12.5133 76.1862 13.38C76.6262 14.2467 76.8462 15.2533 76.8462 16.4C76.8462 17.5467 76.6262 18.56 76.1862 19.44C75.7595 20.3067 75.1728 20.98 74.4262 21.46C73.6795 21.9267 72.8462 22.16 71.9262 22.16C71.1528 22.16 70.4662 22 69.8662 21.68C69.2795 21.36 68.8195 20.9467 68.4862 20.44V27.32H65.0662V10.84H68.4862V12.42ZM73.3662 16.4C73.3662 15.5467 73.1262 14.88 72.6462 14.4C72.1795 13.9067 71.5995 13.66 70.9062 13.66C70.2262 13.66 69.6462 13.9067 69.1662 14.4C68.6995 14.8933 68.4662 15.5667 68.4662 16.42C68.4662 17.2733 68.6995 17.9467 69.1662 18.44C69.6462 18.9333 70.2262 19.18 70.9062 19.18C71.5862 19.18 72.1662 18.9333 72.6462 18.44C73.1262 17.9333 73.3662 17.2533 73.3662 16.4ZM82.0604 12.42C82.3937 11.9 82.8537 11.48 83.4404 11.16C84.0271 10.84 84.7137 10.68 85.5004 10.68C86.4204 10.68 87.2537 10.9133 88.0004 11.38C88.7471 11.8467 89.3337 12.5133 89.7604 13.38C90.2004 14.2467 90.4204 15.2533 90.4204 16.4C90.4204 17.5467 90.2004 18.56 89.7604 19.44C89.3337 20.3067 88.7471 20.98 88.0004 21.46C87.2537 21.9267 86.4204 22.16 85.5004 22.16C84.7271 22.16 84.0404 22 83.4404 21.68C82.8537 21.36 82.3937 20.9467 82.0604 20.44V27.32H78.6404V10.84H82.0604V12.42ZM86.9404 16.4C86.9404 15.5467 86.7004 14.88 86.2204 14.4C85.7537 13.9067 85.1737 13.66 84.4804 13.66C83.8004 13.66 83.2204 13.9067 82.7404 14.4C82.2737 14.8933 82.0404 15.5667 82.0404 16.42C82.0404 17.2733 82.2737 17.9467 82.7404 18.44C83.2204 18.9333 83.8004 19.18 84.4804 19.18C85.1604 19.18 85.7404 18.9333 86.2204 18.44C86.7004 17.9333 86.9404 17.2533 86.9404 16.4ZM102.735 16.24C102.735 16.56 102.715 16.8933 102.675 17.24H94.9346C94.9879 17.9333 95.2079 18.4667 95.5946 18.84C95.9946 19.2 96.4813 19.38 97.0546 19.38C97.9079 19.38 98.5013 19.02 98.8346 18.3H102.475C102.288 19.0333 101.948 19.6933 101.455 20.28C100.975 20.8667 100.368 21.3267 99.6346 21.66C98.9013 21.9933 98.0813 22.16 97.1746 22.16C96.0813 22.16 95.1079 21.9267 94.2546 21.46C93.4013 20.9933 92.7346 20.3267 92.2546 19.46C91.7746 18.5933 91.5346 17.58 91.5346 16.42C91.5346 15.26 91.7679 14.2467 92.2346 13.38C92.7146 12.5133 93.3813 11.8467 94.2346 11.38C95.0879 10.9133 96.0679 10.68 97.1746 10.68C98.2546 10.68 99.2146 10.9067 100.055 11.36C100.895 11.8133 101.548 12.46 102.015 13.3C102.495 14.14 102.735 15.12 102.735 16.24ZM99.2346 15.34C99.2346 14.7533 99.0346 14.2867 98.6346 13.94C98.2346 13.5933 97.7346 13.42 97.1346 13.42C96.5613 13.42 96.0746 13.5867 95.6746 13.92C95.2879 14.2533 95.0479 14.7267 94.9546 15.34H99.2346ZM107.959 12.7C108.359 12.0867 108.859 11.6067 109.459 11.26C110.059 10.9 110.725 10.72 111.459 10.72V14.34H110.519C109.665 14.34 109.025 14.5267 108.599 14.9C108.172 15.26 107.959 15.9 107.959 16.82V22H104.539V10.84H107.959V12.7Z" fill="black"/>
<path d="M14.031 14.852C14.031 15.175 13.769 15.437 13.446 15.437C13.123 15.437 12.861 15.175 12.861 14.852C12.861 14.529 13.124 14.267 13.446 14.267C13.769 14.267 14.031 14.529 14.031 14.852ZM21.013 19.958C20.641 20.732 19.823 21.214 18.878 21.214C18.447 21.214 18.008 21.112 17.607 20.919C16.292 20.283 15.677 18.817 16.237 17.652C16.799 16.481 18.324 16.053 19.642 16.693C20.957 17.329 21.572 18.793 21.013 19.958ZM18.998 18.026C18.468 17.769 17.786 17.852 17.573 18.293C17.37 18.716 17.681 19.307 18.253 19.584C18.808 19.854 19.484 19.717 19.677 19.316C19.88 18.893 19.569 18.303 18.998 18.026ZM16.206 12.343C15.649 11.176 16.267 9.713 17.584 9.079C17.983 8.888 18.42 8.787 18.848 8.787C19.796 8.787 20.616 9.27 20.988 10.048C21.545 11.215 20.926 12.678 19.609 13.31C18.302 13.939 16.772 13.526 16.206 12.343ZM17.543 11.704C17.73 12.095 18.357 12.266 18.967 11.975C19.539 11.7 19.852 11.109 19.65 10.686C19.527 10.429 19.219 10.269 18.848 10.269C18.64 10.269 18.426 10.319 18.226 10.415C17.653 10.69 17.341 11.28 17.543 11.704ZM9.961 17.903C8.006 18.806 6.202 19.626 5.75 19.843C4.745 20.326 3.623 19.593 2.985 18.716L7.318 16.62L5.054 15.521L0 17.966C0.959 19.438 2.503 21.977 5.072 21.977C5.604 21.977 6.12 21.858 6.607 21.624C6.84 21.512 10.283 19.947 12.267 19.022L9.961 17.903ZM24 19.058C24 21.83 21.746 24 18.868 24C16.055 24 13.258 21.831 13.25 18.391L0.042 11.993C1.011 10.513 2.562 7.99 5.119 7.99C5.653 7.99 6.172 8.11 6.661 8.346C6.661 8.346 11.359 10.468 13.218 11.368C13.26 8.452 15.794 6 18.839 6C21.717 6 23.972 8.17 23.972 10.942C23.972 12.472 23.254 13.949 22.066 14.987C23.27 16.026 24 17.516 24 19.058ZM22.024 19.058C22.024 17.827 21.258 16.6 19.992 15.96C18.604 15.259 18.151 15.968 16.144 14.987C18.106 14.041 18.573 14.737 19.956 14.043C21.226 13.405 21.995 12.176 21.995 10.942C21.995 9.3 20.641 7.976 18.838 7.976C16.581 7.976 14.774 10.06 15.276 12.129C15.477 12.954 15.042 13.065 14.379 13.384L13.61 13.754C10.547 12.269 6.685 10.553 5.8 10.125C4.796 9.641 3.672 10.369 3.033 11.246L14.414 16.605C15.077 16.926 15.511 17.038 15.308 17.863C14.794 19.959 16.632 22.025 18.869 22.025C20.667 22.024 22.024 20.704 22.024 19.058Z" fill="black"/>
</svg>
