<svg width="107" height="25" viewBox="0 0 107 25" fill="none" xmlns="http://www.w3.org/2000/svg">
<g clip-path="url(#clip0_4_30)">
<path d="M13.144 8.171C13.109 8.105 13.486 8.069 13.553 8.069C13.627 8.078 13.357 8.521 13.144 8.171ZM12.683 23.966C12.455 23.979 12.23 24 12 24C5.372 24 0 18.627 0 12C0 5.373 5.372 0 12 0C18.627 0 24 5.373 24 12C24 12.23 23.979 12.455 23.966 12.682C23.384 12.03 22.7 11.473 21.935 11.039C21.871 10.36 21.753 9.746 21.629 9.368C21.571 9.194 21.44 9.056 21.27 8.99C21.014 8.89 19.933 9.587 19.77 9.244C19.663 9.015 19.446 9.39 19.198 9.252C19.078 9.186 18.744 8.737 18.593 8.792C18.284 8.903 19.067 9.756 19.281 9.868C19.482 9.716 20.133 9.403 20.273 9.83C20.329 9.996 20.32 10.165 20.282 10.334C19.557 10.119 18.793 10 18 10C15.115 10 12.31 11.602 10.897 14.328C10.771 14.386 10.647 14.449 10.516 14.489C10.17 14.593 9.816 14.407 9.474 14.364C8.067 14.186 7.608 12.578 7.975 11.418C8.012 11.228 7.861 10.876 7.927 10.729C8.085 10.377 8.407 9.982 8.689 9.715C8.847 9.565 9.05 9.603 9.236 9.486C9.523 9.305 9.527 8.933 9.808 8.705C10.208 8.38 10.754 8.387 11.276 8.317C11.554 8.28 12.612 8.051 12.779 8.257C12.779 8.295 12.97 8.861 12.76 8.829C13.193 8.852 13.81 9.578 14.221 9.408C14.432 9.32 14.355 8.672 14.788 8.985C15.05 9.173 16.224 9.257 16.468 9.054C16.618 8.93 16.702 8.124 16.52 8.033C16.636 8.148 15.909 8.157 15.841 8.131C15.721 8.087 15.609 8.245 15.416 8.156C15.532 8.211 14.77 7.802 15.198 7.489C15.019 7.62 14.852 7.452 14.659 7.596C14.526 7.704 14.721 7.776 14.531 7.87C14.229 8.023 14.001 7.345 13.887 7.268C13.771 7.192 12.873 6.562 13.117 6.973L13.906 7.758C13.867 7.783 13.699 7.472 13.699 7.699C13.752 7.564 13.719 8.278 13.595 8.046C13.54 7.957 13.685 7.907 13.601 7.778C13.601 7.693 13.373 7.61 13.329 7.552C13.204 7.397 12.872 7.055 12.692 6.973C12.642 6.95 11.928 7.06 11.868 7.083C11.798 7.181 11.738 7.284 11.689 7.394C11.541 7.449 11.402 7.52 11.27 7.608L11.113 7.961C11.045 8.022 10.348 8.252 10.344 8.261C10.373 8.186 9.857 8.09 9.891 7.94C9.929 7.775 10.104 7.26 10.059 7.072C10.011 6.875 11.133 7.356 11.205 6.837C11.234 6.612 11.251 6.35 10.892 6.312C10.96 6.32 11.587 6.066 11.691 5.952C11.837 5.784 12.172 5.51 12.415 5.51C12.699 5.51 12.638 5.097 12.769 4.895C12.9 4.948 12.699 5.271 12.856 5.402C12.846 5.299 13.301 5.459 13.345 5.435C13.45 5.38 14.03 5.412 13.94 5.14C13.84 4.863 13.991 4.945 14.121 4.887C14.101 4.895 14.366 4.433 14.48 4.435C14.377 4.347 14.085 4.546 13.97 4.537C13.665 4.513 13.794 4.017 13.909 3.872C13.998 3.757 13.666 3.616 13.662 3.836C13.656 4.165 13.35 4.463 13.421 4.9C13.529 5.559 12.686 4.741 12.612 4.786C12.332 4.956 12.103 4.572 12.248 4.342C12.396 4.107 12.753 4.118 12.9 3.866C13.004 3.688 13.125 3.481 13.285 3.346C13.82 2.897 13.968 3.256 14.501 3.305C15.022 3.353 14.677 3.429 14.605 3.629C14.536 3.819 14.891 3.887 15.014 3.728C15.084 3.636 15.243 3.405 15.312 3.234C15.401 3.012 16.213 3.037 15.646 2.698C15.272 2.475 13.642 2.026 12.55 2.026C12.314 2.026 12.149 2.289 11.969 2.438C11.613 2.733 10.701 3.312 10.194 3.136C9.675 2.957 8.564 3.796 8.386 3.802C8.321 3.806 8.39 3.168 8.744 3.121C8.591 3.144 9.991 2.414 9.953 2.262C9.907 2.082 7.154 3.084 7.277 3.285C7.336 3.377 7.576 3.377 7.261 3.579C7.081 3.688 6.889 4.38 6.72 4.38C6.215 4.601 6.183 3.945 5.621 4.789L4.727 5.149C3.399 6.56 2.48 8.347 2.147 10.332C2.134 10.411 2.481 10.558 2.526 10.612C2.638 10.746 2.638 11.324 2.693 11.513C2.831 11.991 3.172 12.257 3.433 12.692C3.587 12.951 3.843 13.606 3.762 13.878C3.87 13.7 4.832 14.693 5.008 14.9C5.422 15.387 5.741 15.977 5.069 16.459C4.852 16.615 5.399 17.588 5.117 17.827L4.756 17.92C4.4 18.139 4.561 18.676 4.777 18.902C6.388 20.588 8.586 21.706 11.042 21.939C11.476 22.703 12.031 23.385 12.683 23.966ZM15.69 6.629C15.684 6.483 15.5 6.345 15.308 6.598C15.173 6.772 15.197 7.037 15.124 7.155C15.02 7.33 15.691 7.494 15.691 7.329C15.716 7.052 16.423 7.266 16.561 7.304C16.809 7.373 17.204 7.078 16.772 6.923C16.417 6.793 16.23 6.654 16.198 6.4C16.198 6.4 16.386 6.224 16.304 6.234C16.086 6.261 15.69 7.02 15.69 6.629ZM10.391 5.54C10.307 5.625 10.394 5.68 10.48 5.643C10.605 5.588 10.773 5.59 10.791 5.423C10.806 5.275 10.835 5.377 10.871 5.323C10.906 5.27 10.804 5.185 10.761 5.177C10.697 5.163 10.653 5.246 10.612 5.281L10.54 5.3L10.472 5.387L10.48 5.435L10.391 5.54ZM10.866 5.884C10.962 6.02 11.69 5.689 11.574 5.708C11.799 5.595 11.603 5.583 11.477 5.518C11.434 5.303 11.398 4.971 11.264 4.838L11.352 4.736C11.145 4.437 10.992 5.098 10.992 5.098L11.1 5.067C11.164 5.122 11.028 5.162 11.049 5.203C11.135 5.358 11.07 5.451 11.057 5.535C11.043 5.62 10.953 5.583 10.908 5.628C10.855 5.694 11.166 5.703 11.17 5.713C11.181 5.746 10.795 5.802 10.866 5.884ZM24 18C24 21.313 21.313 24 18 24C14.687 24 12 21.313 12 18C12 14.687 14.687 12 18 12C21.313 12 24 14.687 24 18ZM20.5 15.5L14.5 17.75L17.5 18.5L18.254 21.5L20.5 15.5Z" fill="#0AAB94"/>
</g>
<path d="M41.2021 15.4316C41.2021 16.5918 40.7832 17.5059 39.9453 18.1738C39.1133 18.8418 37.9531 19.1758 36.4648 19.1758C35.0938 19.1758 33.8809 18.918 32.8262 18.4023V15.8711C33.6934 16.2578 34.4258 16.5303 35.0234 16.6885C35.627 16.8467 36.1777 16.9258 36.6758 16.9258C37.2734 16.9258 37.7305 16.8115 38.0469 16.583C38.3691 16.3545 38.5303 16.0146 38.5303 15.5635C38.5303 15.3115 38.46 15.0889 38.3193 14.8955C38.1787 14.6963 37.9707 14.5059 37.6953 14.3242C37.4258 14.1426 36.8721 13.8525 36.0342 13.4541C35.249 13.085 34.6602 12.7305 34.2676 12.3906C33.875 12.0508 33.5615 11.6553 33.3271 11.2041C33.0928 10.7529 32.9756 10.2256 32.9756 9.62207C32.9756 8.48535 33.3594 7.5918 34.127 6.94141C34.9004 6.29102 35.9668 5.96582 37.3262 5.96582C37.9941 5.96582 38.6299 6.04492 39.2334 6.20312C39.8428 6.36133 40.4785 6.58398 41.1406 6.87109L40.2617 8.98926C39.5762 8.70801 39.0078 8.51172 38.5566 8.40039C38.1113 8.28906 37.6719 8.2334 37.2383 8.2334C36.7227 8.2334 36.3271 8.35352 36.0518 8.59375C35.7764 8.83398 35.6387 9.14746 35.6387 9.53418C35.6387 9.77441 35.6943 9.98535 35.8057 10.167C35.917 10.3428 36.0928 10.5156 36.333 10.6855C36.5791 10.8496 37.1562 11.1484 38.0645 11.582C39.2656 12.1562 40.0889 12.7334 40.5342 13.3135C40.9795 13.8877 41.2021 14.5938 41.2021 15.4316ZM50.2812 19L49.9209 17.7432H49.7803C49.4932 18.2002 49.0859 18.5547 48.5586 18.8066C48.0312 19.0527 47.4307 19.1758 46.7568 19.1758C45.6025 19.1758 44.7324 18.8682 44.1465 18.2529C43.5605 17.6318 43.2676 16.7412 43.2676 15.5811V9.17383H45.9482V14.9131C45.9482 15.6221 46.0742 16.1553 46.3262 16.5127C46.5781 16.8643 46.9795 17.04 47.5303 17.04C48.2803 17.04 48.8223 16.791 49.1562 16.293C49.4902 15.7891 49.6572 14.957 49.6572 13.7969V9.17383H52.3379V19H50.2812ZM60.6172 8.98926C61.7773 8.98926 62.6855 9.44336 63.3418 10.3516C63.998 11.2539 64.3262 12.4932 64.3262 14.0693C64.3262 15.6924 63.9863 16.9492 63.3066 17.8398C62.6328 18.7305 61.7129 19.1758 60.5469 19.1758C59.3926 19.1758 58.4873 18.7568 57.8311 17.9189H57.6465L57.1982 19H55.1504V5.32422H57.8311V8.50586C57.8311 8.91016 57.7959 9.55762 57.7256 10.4482H57.8311C58.458 9.47559 59.3867 8.98926 60.6172 8.98926ZM59.7559 11.1338C59.0938 11.1338 58.6104 11.3389 58.3057 11.749C58.001 12.1533 57.8428 12.8242 57.8311 13.7617V14.0518C57.8311 15.1064 57.9863 15.8623 58.2969 16.3193C58.6133 16.7764 59.1113 17.0049 59.791 17.0049C60.3418 17.0049 60.7783 16.7529 61.1006 16.249C61.4287 15.7393 61.5928 15.001 61.5928 14.0342C61.5928 13.0674 61.4287 12.3438 61.1006 11.8633C60.7725 11.377 60.3242 11.1338 59.7559 11.1338ZM66.1631 17.7432C66.1631 17.251 66.2949 16.8789 66.5586 16.627C66.8223 16.375 67.2061 16.249 67.71 16.249C68.1963 16.249 68.5713 16.3779 68.835 16.6357C69.1045 16.8936 69.2393 17.2627 69.2393 17.7432C69.2393 18.2061 69.1045 18.5723 68.835 18.8418C68.5654 19.1055 68.1904 19.2373 67.71 19.2373C67.2178 19.2373 66.8369 19.1084 66.5674 18.8506C66.2979 18.5869 66.1631 18.2178 66.1631 17.7432ZM79.751 19L78.9951 15.5635L77.9756 11.2217H77.9141L76.1211 19H73.2383L70.4434 9.17383H73.1152L74.249 13.5244C74.4307 14.3037 74.6152 15.3789 74.8027 16.75H74.8555C74.8789 16.3047 74.9814 15.5986 75.1631 14.6318L75.3037 13.8848L76.5166 9.17383H79.4697L80.6211 13.8848C80.6445 14.0137 80.6797 14.2041 80.7266 14.4561C80.7793 14.708 80.8291 14.9775 80.876 15.2646C80.9229 15.5459 80.9639 15.8242 80.999 16.0996C81.04 16.3691 81.0635 16.5859 81.0693 16.75H81.1221C81.1748 16.3281 81.2686 15.751 81.4033 15.0186C81.5381 14.2803 81.6348 13.7822 81.6934 13.5244L82.8711 9.17383H85.499L82.6689 19H79.751ZM93.3301 19L92.8115 17.6641H92.7412C92.29 18.2324 91.8242 18.6279 91.3438 18.8506C90.8691 19.0674 90.248 19.1758 89.4805 19.1758C88.5371 19.1758 87.793 18.9062 87.248 18.3672C86.709 17.8281 86.4395 17.0605 86.4395 16.0645C86.4395 15.0215 86.8027 14.2539 87.5293 13.7617C88.2617 13.2637 89.3633 12.9883 90.834 12.9355L92.5391 12.8828V12.4521C92.5391 11.4561 92.0293 10.958 91.0098 10.958C90.2246 10.958 89.3018 11.1953 88.2412 11.6699L87.3535 9.85938C88.4844 9.26758 89.7383 8.97168 91.1152 8.97168C92.4336 8.97168 93.4443 9.25879 94.1475 9.83301C94.8506 10.4072 95.2021 11.2803 95.2021 12.4521V19H93.3301ZM92.5391 14.4473L91.502 14.4824C90.7227 14.5059 90.1426 14.6465 89.7617 14.9043C89.3809 15.1621 89.1904 15.5547 89.1904 16.082C89.1904 16.8379 89.624 17.2158 90.4912 17.2158C91.1123 17.2158 91.6074 17.0371 91.9766 16.6797C92.3516 16.3223 92.5391 15.8477 92.5391 15.2559V14.4473ZM96.5645 9.17383H99.5L101.354 14.7021C101.513 15.1826 101.621 15.751 101.68 16.4072H101.732C101.797 15.8037 101.923 15.2354 102.11 14.7021L103.93 9.17383H106.804L102.646 20.2568C102.266 21.2822 101.721 22.0498 101.012 22.5596C100.309 23.0693 99.4854 23.3242 98.542 23.3242C98.0791 23.3242 97.625 23.2744 97.1797 23.1748V21.0479C97.502 21.124 97.8535 21.1621 98.2344 21.1621C98.709 21.1621 99.1221 21.0156 99.4736 20.7227C99.8311 20.4355 100.109 19.999 100.309 19.4131L100.467 18.9297L96.5645 9.17383Z" fill="black"/>
<defs>
<clipPath id="clip0_4_30">
<rect width="24" height="24" fill="white"/>
</clipPath>
</defs>
</svg>
