<svg width="227" height="227" viewBox="0 0 227 227" fill="none" xmlns="http://www.w3.org/2000/svg">
<g clip-path="url(#clip0_4_215)">
<path d="M227 0H0V227H227V0Z" fill="white"/>
<path d="M17.4034 9.08H9.08008V17.4033H17.4034V9.08Z" fill="black"/>
<path d="M25.7267 9.08H17.4033V17.4033H25.7267V9.08Z" fill="black"/>
<path d="M34.0499 9.08H25.7266V17.4033H34.0499V9.08Z" fill="black"/>
<path d="M42.3731 9.08H34.0498V17.4033H42.3731V9.08Z" fill="black"/>
<path d="M50.6969 9.08H42.3735V17.4033H50.6969V9.08Z" fill="black"/>
<path d="M59.0201 9.08H50.6968V17.4033H59.0201V9.08Z" fill="black"/>
<path d="M67.3434 9.08H59.02V17.4033H67.3434V9.08Z" fill="black"/>
<path d="M83.9898 9.08H75.6665V17.4033H83.9898V9.08Z" fill="black"/>
<path d="M100.637 9.08H92.3135V17.4033H100.637V9.08Z" fill="black"/>
<path d="M117.283 9.08H108.96V17.4033H117.283V9.08Z" fill="black"/>
<path d="M150.576 9.08H142.253V17.4033H150.576V9.08Z" fill="black"/>
<path d="M167.224 9.08H158.9V17.4033H167.224V9.08Z" fill="black"/>
<path d="M175.547 9.08H167.224V17.4033H175.547V9.08Z" fill="black"/>
<path d="M183.87 9.08H175.547V17.4033H183.87V9.08Z" fill="black"/>
<path d="M192.193 9.08H183.87V17.4033H192.193V9.08Z" fill="black"/>
<path d="M200.517 9.08H192.193V17.4033H200.517V9.08Z" fill="black"/>
<path d="M208.84 9.08H200.517V17.4033H208.84V9.08Z" fill="black"/>
<path d="M217.163 9.08H208.84V17.4033H217.163V9.08Z" fill="black"/>
<path d="M17.4034 17.4033H9.08008V25.7267H17.4034V17.4033Z" fill="black"/>
<path d="M67.3434 17.4033H59.02V25.7267H67.3434V17.4033Z" fill="black"/>
<path d="M92.3136 17.4033H83.9902V25.7267H92.3136V17.4033Z" fill="black"/>
<path d="M100.637 17.4033H92.3135V25.7267H100.637V17.4033Z" fill="black"/>
<path d="M108.96 17.4033H100.637V25.7267H108.96V17.4033Z" fill="black"/>
<path d="M117.283 17.4033H108.96V25.7267H117.283V17.4033Z" fill="black"/>
<path d="M150.576 17.4033H142.253V25.7267H150.576V17.4033Z" fill="black"/>
<path d="M167.224 17.4033H158.9V25.7267H167.224V17.4033Z" fill="black"/>
<path d="M217.163 17.4033H208.84V25.7267H217.163V17.4033Z" fill="black"/>
<path d="M17.4034 25.7267H9.08008V34.05H17.4034V25.7267Z" fill="black"/>
<path d="M34.0499 25.7267H25.7266V34.05H34.0499V25.7267Z" fill="black"/>
<path d="M42.3731 25.7267H34.0498V34.05H42.3731V25.7267Z" fill="black"/>
<path d="M50.6969 25.7267H42.3735V34.05H50.6969V25.7267Z" fill="black"/>
<path d="M67.3434 25.7267H59.02V34.05H67.3434V25.7267Z" fill="black"/>
<path d="M83.9898 25.7267H75.6665V34.05H83.9898V25.7267Z" fill="black"/>
<path d="M92.3136 25.7267H83.9902V34.05H92.3136V25.7267Z" fill="black"/>
<path d="M100.637 25.7267H92.3135V34.05H100.637V25.7267Z" fill="black"/>
<path d="M125.607 25.7267H117.283V34.05H125.607V25.7267Z" fill="black"/>
<path d="M133.93 25.7267H125.606V34.05H133.93V25.7267Z" fill="black"/>
<path d="M142.253 25.7267H133.93V34.05H142.253V25.7267Z" fill="black"/>
<path d="M167.224 25.7267H158.9V34.05H167.224V25.7267Z" fill="black"/>
<path d="M183.87 25.7267H175.547V34.05H183.87V25.7267Z" fill="black"/>
<path d="M192.193 25.7267H183.87V34.05H192.193V25.7267Z" fill="black"/>
<path d="M200.517 25.7267H192.193V34.05H200.517V25.7267Z" fill="black"/>
<path d="M217.163 25.7267H208.84V34.05H217.163V25.7267Z" fill="black"/>
<path d="M17.4034 34.05H9.08008V42.3733H17.4034V34.05Z" fill="black"/>
<path d="M34.0499 34.05H25.7266V42.3733H34.0499V34.05Z" fill="black"/>
<path d="M42.3731 34.05H34.0498V42.3733H42.3731V34.05Z" fill="black"/>
<path d="M50.6969 34.05H42.3735V42.3733H50.6969V34.05Z" fill="black"/>
<path d="M67.3434 34.05H59.02V42.3733H67.3434V34.05Z" fill="black"/>
<path d="M83.9898 34.05H75.6665V42.3733H83.9898V34.05Z" fill="black"/>
<path d="M92.3136 34.05H83.9902V42.3733H92.3136V34.05Z" fill="black"/>
<path d="M100.637 34.05H92.3135V42.3733H100.637V34.05Z" fill="black"/>
<path d="M117.283 34.05H108.96V42.3733H117.283V34.05Z" fill="black"/>
<path d="M125.607 34.05H117.283V42.3733H125.607V34.05Z" fill="black"/>
<path d="M133.93 34.05H125.606V42.3733H133.93V34.05Z" fill="black"/>
<path d="M142.253 34.05H133.93V42.3733H142.253V34.05Z" fill="black"/>
<path d="M150.576 34.05H142.253V42.3733H150.576V34.05Z" fill="black"/>
<path d="M167.224 34.05H158.9V42.3733H167.224V34.05Z" fill="black"/>
<path d="M183.87 34.05H175.547V42.3733H183.87V34.05Z" fill="black"/>
<path d="M192.193 34.05H183.87V42.3733H192.193V34.05Z" fill="black"/>
<path d="M200.517 34.05H192.193V42.3733H200.517V34.05Z" fill="black"/>
<path d="M217.163 34.05H208.84V42.3733H217.163V34.05Z" fill="black"/>
<path d="M17.4034 42.3733H9.08008V50.6967H17.4034V42.3733Z" fill="black"/>
<path d="M34.0499 42.3733H25.7266V50.6967H34.0499V42.3733Z" fill="black"/>
<path d="M42.3731 42.3733H34.0498V50.6967H42.3731V42.3733Z" fill="black"/>
<path d="M50.6969 42.3733H42.3735V50.6967H50.6969V42.3733Z" fill="black"/>
<path d="M67.3434 42.3733H59.02V50.6967H67.3434V42.3733Z" fill="black"/>
<path d="M83.9898 42.3733H75.6665V50.6967H83.9898V42.3733Z" fill="black"/>
<path d="M108.96 42.3733H100.637V50.6967H108.96V42.3733Z" fill="black"/>
<path d="M117.283 42.3733H108.96V50.6967H117.283V42.3733Z" fill="black"/>
<path d="M125.607 42.3733H117.283V50.6967H125.607V42.3733Z" fill="black"/>
<path d="M133.93 42.3733H125.606V50.6967H133.93V42.3733Z" fill="black"/>
<path d="M142.253 42.3733H133.93V50.6967H142.253V42.3733Z" fill="black"/>
<path d="M150.576 42.3733H142.253V50.6967H150.576V42.3733Z" fill="black"/>
<path d="M167.224 42.3733H158.9V50.6967H167.224V42.3733Z" fill="black"/>
<path d="M183.87 42.3733H175.547V50.6967H183.87V42.3733Z" fill="black"/>
<path d="M192.193 42.3733H183.87V50.6967H192.193V42.3733Z" fill="black"/>
<path d="M200.517 42.3733H192.193V50.6967H200.517V42.3733Z" fill="black"/>
<path d="M217.163 42.3733H208.84V50.6967H217.163V42.3733Z" fill="black"/>
<path d="M17.4034 50.6967H9.08008V59.02H17.4034V50.6967Z" fill="black"/>
<path d="M67.3434 50.6967H59.02V59.02H67.3434V50.6967Z" fill="black"/>
<path d="M100.637 50.6967H92.3135V59.02H100.637V50.6967Z" fill="black"/>
<path d="M108.96 50.6967H100.637V59.02H108.96V50.6967Z" fill="black"/>
<path d="M125.607 50.6967H117.283V59.02H125.607V50.6967Z" fill="black"/>
<path d="M133.93 50.6967H125.606V59.02H133.93V50.6967Z" fill="black"/>
<path d="M167.224 50.6967H158.9V59.02H167.224V50.6967Z" fill="black"/>
<path d="M217.163 50.6967H208.84V59.02H217.163V50.6967Z" fill="black"/>
<path d="M17.4034 59.02H9.08008V67.3433H17.4034V59.02Z" fill="black"/>
<path d="M25.7267 59.02H17.4033V67.3433H25.7267V59.02Z" fill="black"/>
<path d="M34.0499 59.02H25.7266V67.3433H34.0499V59.02Z" fill="black"/>
<path d="M42.3731 59.02H34.0498V67.3433H42.3731V59.02Z" fill="black"/>
<path d="M50.6969 59.02H42.3735V67.3433H50.6969V59.02Z" fill="black"/>
<path d="M59.0201 59.02H50.6968V67.3433H59.0201V59.02Z" fill="black"/>
<path d="M67.3434 59.02H59.02V67.3433H67.3434V59.02Z" fill="black"/>
<path d="M83.9898 59.02H75.6665V67.3433H83.9898V59.02Z" fill="black"/>
<path d="M100.637 59.02H92.3135V67.3433H100.637V59.02Z" fill="black"/>
<path d="M117.283 59.02H108.96V67.3433H117.283V59.02Z" fill="black"/>
<path d="M133.93 59.02H125.606V67.3433H133.93V59.02Z" fill="black"/>
<path d="M150.576 59.02H142.253V67.3433H150.576V59.02Z" fill="black"/>
<path d="M167.224 59.02H158.9V67.3433H167.224V59.02Z" fill="black"/>
<path d="M175.547 59.02H167.224V67.3433H175.547V59.02Z" fill="black"/>
<path d="M183.87 59.02H175.547V67.3433H183.87V59.02Z" fill="black"/>
<path d="M192.193 59.02H183.87V67.3433H192.193V59.02Z" fill="black"/>
<path d="M200.517 59.02H192.193V67.3433H200.517V59.02Z" fill="black"/>
<path d="M208.84 59.02H200.517V67.3433H208.84V59.02Z" fill="black"/>
<path d="M217.163 59.02H208.84V67.3433H217.163V59.02Z" fill="black"/>
<path d="M100.637 67.3433H92.3135V75.6667H100.637V67.3433Z" fill="black"/>
<path d="M117.283 67.3433H108.96V75.6667H117.283V67.3433Z" fill="black"/>
<path d="M133.93 67.3433H125.606V75.6667H133.93V67.3433Z" fill="black"/>
<path d="M150.576 67.3433H142.253V75.6667H150.576V67.3433Z" fill="black"/>
<path d="M17.4034 75.6667H9.08008V83.99H17.4034V75.6667Z" fill="black"/>
<path d="M25.7267 75.6667H17.4033V83.99H25.7267V75.6667Z" fill="black"/>
<path d="M34.0499 75.6667H25.7266V83.99H34.0499V75.6667Z" fill="black"/>
<path d="M42.3731 75.6667H34.0498V83.99H42.3731V75.6667Z" fill="black"/>
<path d="M67.3434 75.6667H59.02V83.99H67.3434V75.6667Z" fill="black"/>
<path d="M83.9898 75.6667H75.6665V83.99H83.9898V75.6667Z" fill="black"/>
<path d="M100.637 75.6667H92.3135V83.99H100.637V75.6667Z" fill="black"/>
<path d="M108.96 75.6667H100.637V83.99H108.96V75.6667Z" fill="black"/>
<path d="M117.283 75.6667H108.96V83.99H117.283V75.6667Z" fill="black"/>
<path d="M133.93 75.6667H125.606V83.99H133.93V75.6667Z" fill="black"/>
<path d="M150.576 75.6667H142.253V83.99H150.576V75.6667Z" fill="black"/>
<path d="M158.9 75.6667H150.577V83.99H158.9V75.6667Z" fill="black"/>
<path d="M183.87 75.6667H175.547V83.99H183.87V75.6667Z" fill="black"/>
<path d="M192.193 75.6667H183.87V83.99H192.193V75.6667Z" fill="black"/>
<path d="M200.517 75.6667H192.193V83.99H200.517V75.6667Z" fill="black"/>
<path d="M217.163 75.6667H208.84V83.99H217.163V75.6667Z" fill="black"/>
<path d="M25.7267 83.99H17.4033V92.3133H25.7267V83.99Z" fill="black"/>
<path d="M59.0201 83.99H50.6968V92.3133H59.0201V83.99Z" fill="black"/>
<path d="M75.6666 83.99H67.3433V92.3133H75.6666V83.99Z" fill="black"/>
<path d="M100.637 83.99H92.3135V92.3133H100.637V83.99Z" fill="black"/>
<path d="M117.283 83.99H108.96V92.3133H117.283V83.99Z" fill="black"/>
<path d="M125.607 83.99H117.283V92.3133H125.607V83.99Z" fill="black"/>
<path d="M150.576 83.99H142.253V92.3133H150.576V83.99Z" fill="black"/>
<path d="M158.9 83.99H150.577V92.3133H158.9V83.99Z" fill="black"/>
<path d="M175.547 83.99H167.224V92.3133H175.547V83.99Z" fill="black"/>
<path d="M208.84 83.99H200.517V92.3133H208.84V83.99Z" fill="black"/>
<path d="M25.7267 92.3133H17.4033V100.637H25.7267V92.3133Z" fill="black"/>
<path d="M50.6969 92.3133H42.3735V100.637H50.6969V92.3133Z" fill="black"/>
<path d="M59.0201 92.3133H50.6968V100.637H59.0201V92.3133Z" fill="black"/>
<path d="M67.3434 92.3133H59.02V100.637H67.3434V92.3133Z" fill="black"/>
<path d="M75.6666 92.3133H67.3433V100.637H75.6666V92.3133Z" fill="black"/>
<path d="M92.3136 92.3133H83.9902V100.637H92.3136V92.3133Z" fill="black"/>
<path d="M100.637 92.3133H92.3135V100.637H100.637V92.3133Z" fill="black"/>
<path d="M108.96 92.3133H100.637V100.637H108.96V92.3133Z" fill="black"/>
<path d="M117.283 92.3133H108.96V100.637H117.283V92.3133Z" fill="black"/>
<path d="M175.547 92.3133H167.224V100.637H175.547V92.3133Z" fill="black"/>
<path d="M42.3731 100.637H34.0498V108.96H42.3731V100.637Z" fill="black"/>
<path d="M92.3136 100.637H83.9902V108.96H92.3136V100.637Z" fill="black"/>
<path d="M100.637 100.637H92.3135V108.96H100.637V100.637Z" fill="black"/>
<path d="M125.607 100.637H117.283V108.96H125.607V100.637Z" fill="black"/>
<path d="M158.9 100.637H150.577V108.96H158.9V100.637Z" fill="black"/>
<path d="M167.224 100.637H158.9V108.96H167.224V100.637Z" fill="black"/>
<path d="M192.193 100.637H183.87V108.96H192.193V100.637Z" fill="black"/>
<path d="M200.517 100.637H192.193V108.96H200.517V100.637Z" fill="black"/>
<path d="M17.4034 108.96H9.08008V117.283H17.4034V108.96Z" fill="black"/>
<path d="M34.0499 108.96H25.7266V117.283H34.0499V108.96Z" fill="black"/>
<path d="M50.6969 108.96H42.3735V117.283H50.6969V108.96Z" fill="black"/>
<path d="M67.3434 108.96H59.02V117.283H67.3434V108.96Z" fill="black"/>
<path d="M75.6666 108.96H67.3433V117.283H75.6666V108.96Z" fill="black"/>
<path d="M83.9898 108.96H75.6665V117.283H83.9898V108.96Z" fill="black"/>
<path d="M92.3136 108.96H83.9902V117.283H92.3136V108.96Z" fill="black"/>
<path d="M100.637 108.96H92.3135V117.283H100.637V108.96Z" fill="black"/>
<path d="M117.283 108.96H108.96V117.283H117.283V108.96Z" fill="black"/>
<path d="M125.607 108.96H117.283V117.283H125.607V108.96Z" fill="black"/>
<path d="M142.253 108.96H133.93V117.283H142.253V108.96Z" fill="black"/>
<path d="M158.9 108.96H150.577V117.283H158.9V108.96Z" fill="black"/>
<path d="M167.224 108.96H158.9V117.283H167.224V108.96Z" fill="black"/>
<path d="M175.547 108.96H167.224V117.283H175.547V108.96Z" fill="black"/>
<path d="M183.87 108.96H175.547V117.283H183.87V108.96Z" fill="black"/>
<path d="M200.517 108.96H192.193V117.283H200.517V108.96Z" fill="black"/>
<path d="M208.84 108.96H200.517V117.283H208.84V108.96Z" fill="black"/>
<path d="M217.163 108.96H208.84V117.283H217.163V108.96Z" fill="black"/>
<path d="M25.7267 117.283H17.4033V125.607H25.7267V117.283Z" fill="black"/>
<path d="M42.3731 117.283H34.0498V125.607H42.3731V117.283Z" fill="black"/>
<path d="M50.6969 117.283H42.3735V125.607H50.6969V117.283Z" fill="black"/>
<path d="M75.6666 117.283H67.3433V125.607H75.6666V117.283Z" fill="black"/>
<path d="M83.9898 117.283H75.6665V125.607H83.9898V117.283Z" fill="black"/>
<path d="M108.96 117.283H100.637V125.607H108.96V117.283Z" fill="black"/>
<path d="M117.283 117.283H108.96V125.607H117.283V117.283Z" fill="black"/>
<path d="M125.607 117.283H117.283V125.607H125.607V117.283Z" fill="black"/>
<path d="M133.93 117.283H125.606V125.607H133.93V117.283Z" fill="black"/>
<path d="M142.253 117.283H133.93V125.607H142.253V117.283Z" fill="black"/>
<path d="M150.576 117.283H142.253V125.607H150.576V117.283Z" fill="black"/>
<path d="M167.224 117.283H158.9V125.607H167.224V117.283Z" fill="black"/>
<path d="M175.547 117.283H167.224V125.607H175.547V117.283Z" fill="black"/>
<path d="M183.87 117.283H175.547V125.607H183.87V117.283Z" fill="black"/>
<path d="M217.163 117.283H208.84V125.607H217.163V117.283Z" fill="black"/>
<path d="M25.7267 125.607H17.4033V133.93H25.7267V125.607Z" fill="black"/>
<path d="M42.3731 125.607H34.0498V133.93H42.3731V125.607Z" fill="black"/>
<path d="M67.3434 125.607H59.02V133.93H67.3434V125.607Z" fill="black"/>
<path d="M92.3136 125.607H83.9902V133.93H92.3136V125.607Z" fill="black"/>
<path d="M100.637 125.607H92.3135V133.93H100.637V125.607Z" fill="black"/>
<path d="M108.96 125.607H100.637V133.93H108.96V125.607Z" fill="black"/>
<path d="M133.93 125.607H125.606V133.93H133.93V125.607Z" fill="black"/>
<path d="M158.9 125.607H150.577V133.93H158.9V125.607Z" fill="black"/>
<path d="M183.87 125.607H175.547V133.93H183.87V125.607Z" fill="black"/>
<path d="M200.517 125.607H192.193V133.93H200.517V125.607Z" fill="black"/>
<path d="M208.84 125.607H200.517V133.93H208.84V125.607Z" fill="black"/>
<path d="M17.4034 133.93H9.08008V142.253H17.4034V133.93Z" fill="black"/>
<path d="M34.0499 133.93H25.7266V142.253H34.0499V133.93Z" fill="black"/>
<path d="M92.3136 133.93H83.9902V142.253H92.3136V133.93Z" fill="black"/>
<path d="M100.637 133.93H92.3135V142.253H100.637V133.93Z" fill="black"/>
<path d="M108.96 133.93H100.637V142.253H108.96V133.93Z" fill="black"/>
<path d="M150.576 133.93H142.253V142.253H150.576V133.93Z" fill="black"/>
<path d="M158.9 133.93H150.577V142.253H158.9V133.93Z" fill="black"/>
<path d="M175.547 133.93H167.224V142.253H175.547V133.93Z" fill="black"/>
<path d="M183.87 133.93H175.547V142.253H183.87V133.93Z" fill="black"/>
<path d="M217.163 133.93H208.84V142.253H217.163V133.93Z" fill="black"/>
<path d="M42.3731 142.253H34.0498V150.577H42.3731V142.253Z" fill="black"/>
<path d="M50.6969 142.253H42.3735V150.577H50.6969V142.253Z" fill="black"/>
<path d="M67.3434 142.253H59.02V150.577H67.3434V142.253Z" fill="black"/>
<path d="M100.637 142.253H92.3135V150.577H100.637V142.253Z" fill="black"/>
<path d="M117.283 142.253H108.96V150.577H117.283V142.253Z" fill="black"/>
<path d="M125.607 142.253H117.283V150.577H125.607V142.253Z" fill="black"/>
<path d="M142.253 142.253H133.93V150.577H142.253V142.253Z" fill="black"/>
<path d="M150.576 142.253H142.253V150.577H150.576V142.253Z" fill="black"/>
<path d="M158.9 142.253H150.577V150.577H158.9V142.253Z" fill="black"/>
<path d="M167.224 142.253H158.9V150.577H167.224V142.253Z" fill="black"/>
<path d="M175.547 142.253H167.224V150.577H175.547V142.253Z" fill="black"/>
<path d="M183.87 142.253H175.547V150.577H183.87V142.253Z" fill="black"/>
<path d="M192.193 142.253H183.87V150.577H192.193V142.253Z" fill="black"/>
<path d="M200.517 142.253H192.193V150.577H200.517V142.253Z" fill="black"/>
<path d="M208.84 142.253H200.517V150.577H208.84V142.253Z" fill="black"/>
<path d="M217.163 142.253H208.84V150.577H217.163V142.253Z" fill="black"/>
<path d="M83.9898 150.577H75.6665V158.9H83.9898V150.577Z" fill="black"/>
<path d="M100.637 150.577H92.3135V158.9H100.637V150.577Z" fill="black"/>
<path d="M125.607 150.577H117.283V158.9H125.607V150.577Z" fill="black"/>
<path d="M150.576 150.577H142.253V158.9H150.576V150.577Z" fill="black"/>
<path d="M183.87 150.577H175.547V158.9H183.87V150.577Z" fill="black"/>
<path d="M200.517 150.577H192.193V158.9H200.517V150.577Z" fill="black"/>
<path d="M217.163 150.577H208.84V158.9H217.163V150.577Z" fill="black"/>
<path d="M17.4034 158.9H9.08008V167.223H17.4034V158.9Z" fill="black"/>
<path d="M25.7267 158.9H17.4033V167.223H25.7267V158.9Z" fill="black"/>
<path d="M34.0499 158.9H25.7266V167.223H34.0499V158.9Z" fill="black"/>
<path d="M42.3731 158.9H34.0498V167.223H42.3731V158.9Z" fill="black"/>
<path d="M50.6969 158.9H42.3735V167.223H50.6969V158.9Z" fill="black"/>
<path d="M59.0201 158.9H50.6968V167.223H59.0201V158.9Z" fill="black"/>
<path d="M67.3434 158.9H59.02V167.223H67.3434V158.9Z" fill="black"/>
<path d="M92.3136 158.9H83.9902V167.223H92.3136V158.9Z" fill="black"/>
<path d="M125.607 158.9H117.283V167.223H125.607V158.9Z" fill="black"/>
<path d="M150.576 158.9H142.253V167.223H150.576V158.9Z" fill="black"/>
<path d="M167.224 158.9H158.9V167.223H167.224V158.9Z" fill="black"/>
<path d="M183.87 158.9H175.547V167.223H183.87V158.9Z" fill="black"/>
<path d="M200.517 158.9H192.193V167.223H200.517V158.9Z" fill="black"/>
<path d="M208.84 158.9H200.517V167.223H208.84V158.9Z" fill="black"/>
<path d="M217.163 158.9H208.84V167.223H217.163V158.9Z" fill="black"/>
<path d="M17.4034 167.223H9.08008V175.547H17.4034V167.223Z" fill="black"/>
<path d="M67.3434 167.223H59.02V175.547H67.3434V167.223Z" fill="black"/>
<path d="M92.3136 167.223H83.9902V175.547H92.3136V167.223Z" fill="black"/>
<path d="M100.637 167.223H92.3135V175.547H100.637V167.223Z" fill="black"/>
<path d="M108.96 167.223H100.637V175.547H108.96V167.223Z" fill="black"/>
<path d="M142.253 167.223H133.93V175.547H142.253V167.223Z" fill="black"/>
<path d="M150.576 167.223H142.253V175.547H150.576V167.223Z" fill="black"/>
<path d="M183.87 167.223H175.547V175.547H183.87V167.223Z" fill="black"/>
<path d="M217.163 167.223H208.84V175.547H217.163V167.223Z" fill="black"/>
<path d="M17.4034 175.547H9.08008V183.87H17.4034V175.547Z" fill="black"/>
<path d="M34.0499 175.547H25.7266V183.87H34.0499V175.547Z" fill="black"/>
<path d="M42.3731 175.547H34.0498V183.87H42.3731V175.547Z" fill="black"/>
<path d="M50.6969 175.547H42.3735V183.87H50.6969V175.547Z" fill="black"/>
<path d="M67.3434 175.547H59.02V183.87H67.3434V175.547Z" fill="black"/>
<path d="M92.3136 175.547H83.9902V183.87H92.3136V175.547Z" fill="black"/>
<path d="M133.93 175.547H125.606V183.87H133.93V175.547Z" fill="black"/>
<path d="M150.576 175.547H142.253V183.87H150.576V175.547Z" fill="black"/>
<path d="M158.9 175.547H150.577V183.87H158.9V175.547Z" fill="black"/>
<path d="M167.224 175.547H158.9V183.87H167.224V175.547Z" fill="black"/>
<path d="M175.547 175.547H167.224V183.87H175.547V175.547Z" fill="black"/>
<path d="M183.87 175.547H175.547V183.87H183.87V175.547Z" fill="black"/>
<path d="M192.193 175.547H183.87V183.87H192.193V175.547Z" fill="black"/>
<path d="M208.84 175.547H200.517V183.87H208.84V175.547Z" fill="black"/>
<path d="M17.4034 183.87H9.08008V192.193H17.4034V183.87Z" fill="black"/>
<path d="M34.0499 183.87H25.7266V192.193H34.0499V183.87Z" fill="black"/>
<path d="M42.3731 183.87H34.0498V192.193H42.3731V183.87Z" fill="black"/>
<path d="M50.6969 183.87H42.3735V192.193H50.6969V183.87Z" fill="black"/>
<path d="M67.3434 183.87H59.02V192.193H67.3434V183.87Z" fill="black"/>
<path d="M83.9898 183.87H75.6665V192.193H83.9898V183.87Z" fill="black"/>
<path d="M150.576 183.87H142.253V192.193H150.576V183.87Z" fill="black"/>
<path d="M167.224 183.87H158.9V192.193H167.224V183.87Z" fill="black"/>
<path d="M183.87 183.87H175.547V192.193H183.87V183.87Z" fill="black"/>
<path d="M192.193 183.87H183.87V192.193H192.193V183.87Z" fill="black"/>
<path d="M200.517 183.87H192.193V192.193H200.517V183.87Z" fill="black"/>
<path d="M208.84 183.87H200.517V192.193H208.84V183.87Z" fill="black"/>
<path d="M217.163 183.87H208.84V192.193H217.163V183.87Z" fill="black"/>
<path d="M17.4034 192.193H9.08008V200.517H17.4034V192.193Z" fill="black"/>
<path d="M34.0499 192.193H25.7266V200.517H34.0499V192.193Z" fill="black"/>
<path d="M42.3731 192.193H34.0498V200.517H42.3731V192.193Z" fill="black"/>
<path d="M50.6969 192.193H42.3735V200.517H50.6969V192.193Z" fill="black"/>
<path d="M67.3434 192.193H59.02V200.517H67.3434V192.193Z" fill="black"/>
<path d="M83.9898 192.193H75.6665V200.517H83.9898V192.193Z" fill="black"/>
<path d="M92.3136 192.193H83.9902V200.517H92.3136V192.193Z" fill="black"/>
<path d="M125.607 192.193H117.283V200.517H125.607V192.193Z" fill="black"/>
<path d="M133.93 192.193H125.606V200.517H133.93V192.193Z" fill="black"/>
<path d="M158.9 192.193H150.577V200.517H158.9V192.193Z" fill="black"/>
<path d="M167.224 192.193H158.9V200.517H167.224V192.193Z" fill="black"/>
<path d="M183.87 192.193H175.547V200.517H183.87V192.193Z" fill="black"/>
<path d="M200.517 192.193H192.193V200.517H200.517V192.193Z" fill="black"/>
<path d="M208.84 192.193H200.517V200.517H208.84V192.193Z" fill="black"/>
<path d="M17.4034 200.517H9.08008V208.84H17.4034V200.517Z" fill="black"/>
<path d="M67.3434 200.517H59.02V208.84H67.3434V200.517Z" fill="black"/>
<path d="M83.9898 200.517H75.6665V208.84H83.9898V200.517Z" fill="black"/>
<path d="M108.96 200.517H100.637V208.84H108.96V200.517Z" fill="black"/>
<path d="M117.283 200.517H108.96V208.84H117.283V200.517Z" fill="black"/>
<path d="M125.607 200.517H117.283V208.84H125.607V200.517Z" fill="black"/>
<path d="M133.93 200.517H125.606V208.84H133.93V200.517Z" fill="black"/>
<path d="M158.9 200.517H150.577V208.84H158.9V200.517Z" fill="black"/>
<path d="M167.224 200.517H158.9V208.84H167.224V200.517Z" fill="black"/>
<path d="M183.87 200.517H175.547V208.84H183.87V200.517Z" fill="black"/>
<path d="M200.517 200.517H192.193V208.84H200.517V200.517Z" fill="black"/>
<path d="M17.4034 208.84H9.08008V217.163H17.4034V208.84Z" fill="black"/>
<path d="M25.7267 208.84H17.4033V217.163H25.7267V208.84Z" fill="black"/>
<path d="M34.0499 208.84H25.7266V217.163H34.0499V208.84Z" fill="black"/>
<path d="M42.3731 208.84H34.0498V217.163H42.3731V208.84Z" fill="black"/>
<path d="M50.6969 208.84H42.3735V217.163H50.6969V208.84Z" fill="black"/>
<path d="M59.0201 208.84H50.6968V217.163H59.0201V208.84Z" fill="black"/>
<path d="M67.3434 208.84H59.02V217.163H67.3434V208.84Z" fill="black"/>
<path d="M83.9898 208.84H75.6665V217.163H83.9898V208.84Z" fill="black"/>
<path d="M108.96 208.84H100.637V217.163H108.96V208.84Z" fill="black"/>
<path d="M117.283 208.84H108.96V217.163H117.283V208.84Z" fill="black"/>
<path d="M175.547 208.84H167.224V217.163H175.547V208.84Z" fill="black"/>
<path d="M183.87 208.84H175.547V217.163H183.87V208.84Z" fill="black"/>
<path d="M192.193 208.84H183.87V217.163H192.193V208.84Z" fill="black"/>
<path d="M200.517 208.84H192.193V217.163H200.517V208.84Z" fill="black"/>
<path d="M208.84 208.84H200.517V217.163H208.84V208.84Z" fill="black"/>
<path d="M217.163 208.84H208.84V217.163H217.163V208.84Z" fill="black"/>
</g>
<defs>
<clipPath id="clip0_4_215">
<rect width="227" height="227" fill="white"/>
</clipPath>
</defs>
</svg>
