<svg width="147" height="42" viewBox="0 0 147 42" fill="none" xmlns="http://www.w3.org/2000/svg">
<path d="M52.36 28V14H54.92V28H52.36ZM57.5734 28V18.08H59.8334L60.0334 19.76C60.3401 19.1733 60.7801 18.7067 61.3534 18.36C61.9401 18.0133 62.6268 17.84 63.4134 17.84C64.6401 17.84 65.5934 18.2267 66.2734 19C66.9534 19.7733 67.2934 20.9067 67.2934 22.4V28H64.7334V22.64C64.7334 21.7867 64.5601 21.1333 64.2134 20.68C63.8668 20.2267 63.3268 20 62.5934 20C61.8734 20 61.2801 20.2533 60.8134 20.76C60.3601 21.2667 60.1334 21.9733 60.1334 22.88V28H57.5734ZM74.3014 28.24C73.3681 28.24 72.5347 28.0133 71.8014 27.56C71.0681 27.1067 70.4881 26.4867 70.0614 25.7C69.6347 24.9133 69.4214 24.02 69.4214 23.02C69.4214 22.02 69.6347 21.1333 70.0614 20.36C70.4881 19.5733 71.0681 18.96 71.8014 18.52C72.5347 18.0667 73.3681 17.84 74.3014 17.84C75.0481 17.84 75.7014 17.98 76.2614 18.26C76.8214 18.54 77.2747 18.9333 77.6214 19.44V13.6H80.1814V28H77.9014L77.6214 26.58C77.3014 27.02 76.8747 27.4067 76.3414 27.74C75.8214 28.0733 75.1414 28.24 74.3014 28.24ZM74.8414 26C75.6681 26 76.3414 25.7267 76.8614 25.18C77.3947 24.62 77.6614 23.9067 77.6614 23.04C77.6614 22.1733 77.3947 21.4667 76.8614 20.92C76.3414 20.36 75.6681 20.08 74.8414 20.08C74.0281 20.08 73.3547 20.3533 72.8214 20.9C72.2881 21.4467 72.0214 22.1533 72.0214 23.02C72.0214 23.8867 72.2881 24.6 72.8214 25.16C73.3547 25.72 74.0281 26 74.8414 26ZM84.1683 16.54C83.7016 16.54 83.3149 16.4 83.0083 16.12C82.7149 15.84 82.5683 15.4867 82.5683 15.06C82.5683 14.6333 82.7149 14.2867 83.0083 14.02C83.3149 13.74 83.7016 13.6 84.1683 13.6C84.6349 13.6 85.0149 13.74 85.3083 14.02C85.6149 14.2867 85.7683 14.6333 85.7683 15.06C85.7683 15.4867 85.6149 15.84 85.3083 16.12C85.0149 16.4 84.6349 16.54 84.1683 16.54ZM82.8883 28V18.08H85.4483V28H82.8883ZM92.9403 28.24C91.9403 28.24 91.0536 28.0267 90.2803 27.6C89.507 27.1733 88.9003 26.5733 88.4603 25.8C88.0203 25.0267 87.8003 24.1333 87.8003 23.12C87.8003 22.0933 88.0136 21.18 88.4403 20.38C88.8803 19.58 89.4803 18.96 90.2403 18.52C91.0136 18.0667 91.9203 17.84 92.9603 17.84C93.9336 17.84 94.7936 18.0533 95.5403 18.48C96.287 18.9067 96.867 19.4933 97.2803 20.24C97.707 20.9733 97.9203 21.7933 97.9203 22.7C97.9203 22.8467 97.9136 23 97.9003 23.16C97.9003 23.32 97.8936 23.4867 97.8803 23.66H90.3403C90.3936 24.4333 90.6603 25.04 91.1403 25.48C91.6336 25.92 92.227 26.14 92.9203 26.14C93.4403 26.14 93.8736 26.0267 94.2203 25.8C94.5803 25.56 94.847 25.2533 95.0203 24.88H97.6203C97.4336 25.5067 97.1203 26.08 96.6803 26.6C96.2536 27.1067 95.7203 27.5067 95.0803 27.8C94.4536 28.0933 93.7403 28.24 92.9403 28.24ZM92.9603 19.92C92.3336 19.92 91.7803 20.1 91.3003 20.46C90.8203 20.8067 90.5136 21.34 90.3803 22.06H95.3203C95.2803 21.4067 95.0403 20.8867 94.6003 20.5C94.1603 20.1133 93.6136 19.92 92.9603 19.92ZM100.133 28V14H105.753C107.207 14 108.313 14.34 109.073 15.02C109.847 15.6867 110.233 16.5467 110.233 17.6C110.233 18.48 109.993 19.1867 109.513 19.72C109.047 20.24 108.473 20.5933 107.793 20.78C108.593 20.94 109.253 21.34 109.773 21.98C110.293 22.6067 110.553 23.34 110.553 24.18C110.553 25.2867 110.153 26.2 109.353 26.92C108.553 27.64 107.42 28 105.953 28H100.133ZM102.693 19.88H105.373C106.093 19.88 106.647 19.7133 107.033 19.38C107.42 19.0467 107.613 18.5733 107.613 17.96C107.613 17.3733 107.42 16.9133 107.033 16.58C106.66 16.2333 106.093 16.06 105.333 16.06H102.693V19.88ZM102.693 25.92H105.553C106.313 25.92 106.9 25.7467 107.313 25.4C107.74 25.04 107.953 24.54 107.953 23.9C107.953 23.2467 107.733 22.7333 107.293 22.36C106.853 21.9867 106.26 21.8 105.513 21.8H102.693V25.92ZM112.691 28V18.08H114.971L115.211 19.94C115.571 19.3 116.057 18.7933 116.671 18.42C117.297 18.0333 118.031 17.84 118.871 17.84V20.54H118.151C117.591 20.54 117.091 20.6267 116.651 20.8C116.211 20.9733 115.864 21.2733 115.611 21.7C115.371 22.1267 115.251 22.72 115.251 23.48V28H112.691ZM125.265 28.24C124.265 28.24 123.378 28.0267 122.605 27.6C121.831 27.1733 121.225 26.5733 120.785 25.8C120.345 25.0267 120.125 24.1333 120.125 23.12C120.125 22.0933 120.338 21.18 120.765 20.38C121.205 19.58 121.805 18.96 122.565 18.52C123.338 18.0667 124.245 17.84 125.285 17.84C126.258 17.84 127.118 18.0533 127.865 18.48C128.611 18.9067 129.191 19.4933 129.605 20.24C130.031 20.9733 130.245 21.7933 130.245 22.7C130.245 22.8467 130.238 23 130.225 23.16C130.225 23.32 130.218 23.4867 130.205 23.66H122.665C122.718 24.4333 122.985 25.04 123.465 25.48C123.958 25.92 124.551 26.14 125.245 26.14C125.765 26.14 126.198 26.0267 126.545 25.8C126.905 25.56 127.171 25.2533 127.345 24.88H129.945C129.758 25.5067 129.445 26.08 129.005 26.6C128.578 27.1067 128.045 27.5067 127.405 27.8C126.778 28.0933 126.065 28.24 125.265 28.24ZM125.285 19.92C124.658 19.92 124.105 20.1 123.625 20.46C123.145 20.8067 122.838 21.34 122.705 22.06H127.645C127.605 21.4067 127.365 20.8867 126.925 20.5C126.485 20.1133 125.938 19.92 125.285 19.92ZM133.947 28L131.047 18.08H133.587L135.307 25.22L137.307 18.08H140.147L142.147 25.22L143.887 18.08H146.427L143.507 28H140.847L138.727 20.58L136.607 28H133.947Z" fill="black"/>
<rect x="0.5" y="0.5" width="41" height="41" rx="4.5" fill="white" stroke="#EAC9F8"/>
<path d="M10.4908 12.5065H13.0245V14.4294H11.7426C10.4606 14.4294 10.4606 15.0704 10.4606 15.7114V21.0135C10.4606 21.989 11.3858 22.1203 11.3858 22.1203H13.0245V24.0432H10.4908C9.4127 24.0432 8.53845 23.1697 8.53845 22.0916V14.4581C8.53845 13.3807 9.41198 12.5065 10.4908 12.5065Z" fill="#FFAC33"/>
<path d="M12.3835 12.5065H23.2786V25.8111C23.2786 26.6006 22.6326 27.2466 21.843 27.2466H13.8191C13.0295 27.2466 12.3835 26.6006 12.3835 25.8111V12.5065Z" fill="#FFAC33"/>
<path d="M14.6266 25.3237C14.9804 25.3237 15.2676 25.0373 15.2676 24.6828V17.6335C15.2676 17.2797 14.9812 16.9926 14.6266 16.9926C14.2727 16.9926 13.9856 17.279 13.9856 17.6335V24.6828C13.9856 25.0373 14.2727 25.3237 14.6266 25.3237ZM17.8307 25.3237C18.1846 25.3237 18.4717 25.0373 18.4717 24.6828V17.6335C18.4717 17.2797 18.1853 16.9926 17.8307 16.9926C17.4768 16.9926 17.1897 17.279 17.1897 17.6335V24.6828C17.1905 25.0373 17.4768 25.3237 17.8307 25.3237ZM12.3835 14.7395V12.5065H23.2786V16.0078C23.069 16.0846 22.845 16.1334 22.6089 16.1334C21.7921 16.1334 21.0937 15.6302 20.803 14.9175C20.6322 15.0654 20.4118 15.1572 20.1692 15.1572C19.839 15.1572 19.5483 14.9921 19.3718 14.7409C19.0251 15.2836 18.4214 15.6453 17.7295 15.6453C17.095 15.6453 16.5359 15.3374 16.1798 14.868C16.0018 15.3223 15.5626 15.6453 15.0458 15.6453C14.5828 15.6453 14.1852 15.384 13.9777 15.0043C13.7839 15.0991 13.5686 15.1572 13.3375 15.1572C12.7044 15.1572 12.3835 14.7395 12.3835 14.7395Z" fill="#F4900C"/>
<path d="M14.3065 9.3024H22.6376C23.9196 9.3024 24.5605 9.94337 24.5605 11.2253V13.2063C24.5605 14.2844 23.6863 15.158 22.6089 15.158C21.7921 15.158 21.0937 14.6548 20.803 13.9428C20.6322 14.0899 20.4118 14.1825 20.1692 14.1825C19.839 14.1825 19.5483 14.0174 19.3718 13.7662C19.0251 14.3081 18.4214 14.6699 17.7295 14.6699C17.095 14.6699 16.5359 14.362 16.1798 13.8925C16.0018 14.3469 15.5626 14.6699 15.0458 14.6699C14.6007 14.6699 14.2203 14.4258 14.0071 14.0691C13.8342 14.2335 13.6023 14.3361 13.3446 14.3361C12.8135 14.3361 12.3835 13.9055 12.3835 13.375V11.2253C12.3835 9.94337 13.0245 9.3024 14.3065 9.3024Z" fill="#E1E8ED"/>
<path d="M30.4269 13.2602C30.2431 13.2602 30.0594 13.1899 29.9194 13.0499C29.6388 12.7692 29.6388 12.3149 29.9194 12.0342L32.4689 9.48615C32.7496 9.20622 33.2032 9.20622 33.4839 9.48615C33.7645 9.76608 33.7645 10.2212 33.4839 10.5018L30.9344 13.0499C30.7944 13.1906 30.6106 13.2602 30.4269 13.2602ZM27.4381 12.0421C27.3599 12.0421 27.2795 12.0285 27.2012 12.0012C26.8273 11.8706 26.6299 11.4615 26.7605 11.0868L27.4568 9.0964C27.5881 8.72245 27.9965 8.52506 28.3712 8.65569C28.7452 8.78633 28.9425 9.19546 28.8119 9.57013L28.1157 11.5605C28.0123 11.857 27.7345 12.0421 27.4381 12.0421ZM31.8474 16.1865C31.5516 16.1865 31.2746 16.0021 31.1705 15.7078C31.0384 15.3338 31.2351 14.924 31.6083 14.7919L33.3985 14.1596C33.7731 14.0268 34.1823 14.2242 34.3143 14.5974C34.4464 14.9714 34.2497 15.3812 33.8765 15.5133L32.0864 16.1456C32.0067 16.1736 31.9263 16.1865 31.8474 16.1865Z" fill="#FA743E"/>
<path d="M32.4259 19.6842H29.8922V21.6071H31.1741C32.456 21.6071 32.456 22.2481 32.456 22.889V28.1912C32.456 29.1667 31.5308 29.298 31.5308 29.298H29.8922V31.2209H32.4259C33.504 31.2209 34.3782 30.3474 34.3782 29.2693V21.6358C34.3782 20.5584 33.5047 19.6842 32.4259 19.6842Z" fill="#FFAC33"/>
<path d="M30.5331 19.6842H19.6381V32.9888C19.6381 33.7783 20.2841 34.4243 21.0736 34.4243H29.0976C29.8871 34.4243 30.5331 33.7783 30.5331 32.9888V19.6842Z" fill="#FFCC4D"/>
<path d="M21.8811 32.5014C21.5273 32.5014 21.2402 32.2151 21.2402 31.8605V24.8113C21.2402 24.4574 21.5273 24.1703 21.8811 24.1703C22.235 24.1703 22.5221 24.4567 22.5221 24.8113V31.8605C22.5221 32.2151 22.235 32.5014 21.8811 32.5014ZM28.2901 32.5014C27.9363 32.5014 27.6491 32.2151 27.6491 31.8605V24.8113C27.6491 24.4574 27.9355 24.1703 28.2901 24.1703C28.644 24.1703 28.9311 24.4567 28.9311 24.8113V31.8605C28.9311 32.2151 28.644 32.5014 28.2901 32.5014ZM25.086 32.5014C24.7321 32.5014 24.445 32.2151 24.445 31.8605V24.8113C24.445 24.4574 24.7314 24.1703 25.086 24.1703C25.4406 24.1703 25.727 24.4567 25.727 24.8113V31.8605C25.7262 32.2151 25.4398 32.5014 25.086 32.5014Z" fill="#F4900C"/>
<path d="M30.5331 21.9172V19.6842H19.6381V23.1855C19.8477 23.2623 20.0716 23.3111 20.3077 23.3111C21.1246 23.3111 21.823 22.8079 22.1137 22.0952C22.2845 22.2431 22.5048 22.3349 22.7474 22.3349C23.0776 22.3349 23.3683 22.1698 23.5449 21.9186C23.8916 22.4613 24.4952 22.823 25.1871 22.823C25.8217 22.823 26.3808 22.5151 26.7368 22.0457C26.9148 22.5 27.3541 22.823 27.8709 22.823C28.3339 22.823 28.7315 22.5617 28.9389 22.182C29.1327 22.2768 29.3481 22.3349 29.5792 22.3349C30.2123 22.3349 30.5331 21.9172 30.5331 21.9172Z" fill="#FFAC33"/>
<path d="M28.6102 16.4801H20.279C18.9971 16.4801 18.3561 17.1211 18.3561 18.403V20.3841C18.3561 21.4621 19.2304 22.3357 20.3078 22.3357C21.1246 22.3357 21.823 21.8325 22.1137 21.1205C22.2845 21.2676 22.5049 21.3602 22.7475 21.3602C23.0776 21.3602 23.3683 21.1951 23.5449 20.9439C23.8916 21.4858 24.4952 21.8476 25.1872 21.8476C25.8217 21.8476 26.3808 21.5397 26.7368 21.0702C26.9148 21.5246 27.3541 21.8476 27.8709 21.8476C28.3159 21.8476 28.6963 21.6035 28.9095 21.2468C29.0818 21.4112 29.3143 21.5138 29.5713 21.5138C30.1025 21.5138 30.5324 21.0832 30.5324 20.5527V18.403C30.5331 17.1211 29.8921 16.4801 28.6102 16.4801Z" fill="#EEEEEE"/>
</svg>
