<svg width="114" height="29" viewBox="0 0 114 29" fill="none" xmlns="http://www.w3.org/2000/svg">
<path d="M53.9062 7.17969V23H50.6484V13.4375L46.6172 17.8438H45.6797L41.6016 13.4375V23H38.3438V7.17969H39.4453L46.1484 14.1641L52.8047 7.17969H53.9062ZM63.2578 10.8594C64.4141 10.8594 65.4062 11.1094 66.2344 11.6094C67.0781 12.1094 67.7188 12.8047 68.1562 13.6953C68.6094 14.5703 68.8359 15.5859 68.8359 16.7422V18.0078H60.2578C60.4141 18.8047 60.8047 19.4453 61.4297 19.9297C62.0547 20.4141 62.8203 20.6562 63.7266 20.6562C64.5859 20.6562 65.3672 20.4844 66.0703 20.1406C66.7734 19.7969 67.3359 19.4453 67.7578 19.0859L67.7344 21.8516C67.3594 22.1797 66.7969 22.5156 66.0469 22.8594C65.3125 23.1875 64.5 23.3516 63.6094 23.3516C62.4375 23.3516 61.3672 23.0859 60.3984 22.5547C59.4453 22.0234 58.6797 21.2969 58.1016 20.375C57.5391 19.4531 57.2578 18.3984 57.2578 17.2109C57.2578 16.0547 57.5156 15 58.0312 14.0469C58.5469 13.0938 59.2578 12.3281 60.1641 11.75C61.0703 11.1562 62.1016 10.8594 63.2578 10.8594ZM63.1875 13.4609C62.4531 13.4609 61.8359 13.6875 61.3359 14.1406C60.8359 14.5938 60.4922 15.2031 60.3047 15.9688H65.9766C65.9141 15.125 65.6016 14.5 65.0391 14.0938C64.4766 13.6719 63.8594 13.4609 63.1875 13.4609ZM76.7344 10.8594C77.8906 10.8594 78.8828 11.1094 79.7109 11.6094C80.5547 12.1094 81.1953 12.8047 81.6328 13.6953C82.0859 14.5703 82.3125 15.5859 82.3125 16.7422V18.0078H73.7344C73.8906 18.8047 74.2812 19.4453 74.9062 19.9297C75.5312 20.4141 76.2969 20.6562 77.2031 20.6562C78.0625 20.6562 78.8438 20.4844 79.5469 20.1406C80.25 19.7969 80.8125 19.4453 81.2344 19.0859L81.2109 21.8516C80.8359 22.1797 80.2734 22.5156 79.5234 22.8594C78.7891 23.1875 77.9766 23.3516 77.0859 23.3516C75.9141 23.3516 74.8438 23.0859 73.875 22.5547C72.9219 22.0234 72.1562 21.2969 71.5781 20.375C71.0156 19.4531 70.7344 18.3984 70.7344 17.2109C70.7344 16.0547 70.9922 15 71.5078 14.0469C72.0234 13.0938 72.7344 12.3281 73.6406 11.75C74.5469 11.1562 75.5781 10.8594 76.7344 10.8594ZM76.6641 13.4609C75.9297 13.4609 75.3125 13.6875 74.8125 14.1406C74.3125 14.5938 73.9688 15.2031 73.7812 15.9688H79.4531C79.3906 15.125 79.0781 14.5 78.5156 14.0938C77.9531 13.6719 77.3359 13.4609 76.6641 13.4609ZM90.2109 10.8594C91.3672 10.8594 92.3594 11.1094 93.1875 11.6094C94.0312 12.1094 94.6719 12.8047 95.1094 13.6953C95.5625 14.5703 95.7891 15.5859 95.7891 16.7422V18.0078H87.2109C87.3672 18.8047 87.7578 19.4453 88.3828 19.9297C89.0078 20.4141 89.7734 20.6562 90.6797 20.6562C91.5391 20.6562 92.3203 20.4844 93.0234 20.1406C93.7266 19.7969 94.2891 19.4453 94.7109 19.0859L94.6875 21.8516C94.3125 22.1797 93.75 22.5156 93 22.8594C92.2656 23.1875 91.4531 23.3516 90.5625 23.3516C89.3906 23.3516 88.3203 23.0859 87.3516 22.5547C86.3984 22.0234 85.6328 21.2969 85.0547 20.375C84.4922 19.4531 84.2109 18.3984 84.2109 17.2109C84.2109 16.0547 84.4688 15 84.9844 14.0469C85.5 13.0938 86.2109 12.3281 87.1172 11.75C88.0234 11.1562 89.0547 10.8594 90.2109 10.8594ZM90.1406 13.4609C89.4062 13.4609 88.7891 13.6875 88.2891 14.1406C87.7891 14.5938 87.4453 15.2031 87.2578 15.9688H92.9297C92.8672 15.125 92.5547 14.5 91.9922 14.0938C91.4297 13.6719 90.8125 13.4609 90.1406 13.4609ZM102.797 7.71875V11.1641H106.078V13.6484H102.797V18.7578C102.797 19.2891 102.914 19.7109 103.148 20.0234C103.398 20.3203 103.766 20.4688 104.25 20.4688C104.672 20.4688 105.031 20.4219 105.328 20.3281C105.641 20.2344 105.93 20.1016 106.195 19.9297V22.2969C105.898 22.5938 105.523 22.8438 105.07 23.0469C104.633 23.25 104.078 23.3516 103.406 23.3516C102.344 23.3516 101.477 23.0156 100.805 22.3438C100.148 21.6562 99.8203 20.7188 99.8203 19.5312V13.6484H97.6875V12.125C98.4375 11.8594 99.125 11.3594 99.75 10.625C100.391 9.89062 100.898 8.92188 101.273 7.71875H102.797ZM110.648 19.6719C111.164 19.6719 111.602 19.8594 111.961 20.2344C112.336 20.5938 112.523 21.0312 112.523 21.5469C112.523 22.0625 112.336 22.5078 111.961 22.8828C111.602 23.2422 111.164 23.4219 110.648 23.4219C110.133 23.4219 109.688 23.2422 109.312 22.8828C108.953 22.5078 108.773 22.0625 108.773 21.5469C108.773 21.0312 108.953 20.5938 109.312 20.2344C109.688 19.8594 110.133 19.6719 110.648 19.6719Z" fill="#32F5C8"/>
<g clip-path="url(#clip0)">
<path fill-rule="evenodd" clip-rule="evenodd" d="M23 10C23 9.448 22.553 9 22 9H10C9.448 9 9 9.448 9 10V25C9 25.553 9.448 26 10 26H22C22.553 26 23 25.553 23 25V10ZM11 24H21V11H11V24ZM13 22H19V21H13V22ZM16.751 7H14.544L13.299 4.329L3.329 8.978L7 16.851V21.582L1.094 8.917C1.03 8.78 1 8.637 1 8.495C1 8.119 1.214 7.758 1.578 7.588L13.359 2.094C13.496 2.03 13.64 2 13.781 2C14.158 2 14.519 2.214 14.688 2.578L16.751 7V7ZM16 12.086C18.208 12.086 20 13.878 20 16.086C20 18.294 18.208 20.086 16 20.086C13.792 20.086 12 18.294 12 16.086C12 13.878 13.792 12.086 16 12.086V12.086ZM14.413 17.417L14.418 17.442C14.539 17.972 14.688 18.41 14.96 18.93C14.201 18.65 13.633 18.163 13.237 17.417H14.413V17.417ZM16.668 17.417C16.521 17.992 16.315 18.437 16 18.921C15.671 18.421 15.475 17.97 15.332 17.417H16.668V17.417ZM18.762 17.417C18.371 18.153 17.761 18.658 17.045 18.919C17.305 18.423 17.484 17.907 17.587 17.417H18.762V17.417ZM19.061 15.479H17.7C17.731 15.799 17.734 16.205 17.713 16.521H19.061C19.117 16.175 19.116 15.825 19.061 15.479ZM16.8 15.479H15.199C15.162 15.843 15.161 16.236 15.186 16.521H16.814C16.841 16.179 16.834 15.818 16.8 15.479ZM14.3 15.479H12.939C12.883 15.825 12.883 16.175 12.939 16.521H14.287C14.264 16.153 14.27 15.854 14.297 15.505L14.3 15.479ZM18.762 14.583C18.364 13.838 17.763 13.338 17.014 13.07C17.261 13.555 17.427 14.04 17.553 14.562L17.558 14.583H18.762V14.583ZM16.635 14.583C16.48 14.018 16.289 13.573 16 13.086C15.729 13.514 15.493 14.097 15.364 14.583H16.635ZM13.237 14.583H14.442C14.559 14.062 14.762 13.518 14.99 13.06C14.218 13.333 13.637 13.832 13.237 14.583Z" fill="#32F5C8"/>
</g>
<defs>
<clipPath id="clip0">
<rect width="24" height="24" fill="white" transform="translate(0 2)"/>
</clipPath>
</defs>
</svg>
